<?xml version="1.0" encoding="UTF-8" ?>
<!DOCTYPE svg PUBLIC "-//W3C//DTD SVG 1.1//EN" "http://www.w3.org/Graphics/SVG/1.1/DTD/svg11.dtd">
<svg width="1132pt" height="926pt" viewBox="0 0 1132 926" version="1.1" xmlns="http://www.w3.org/2000/svg">
<path fill="#ffffff" d=" M 0.00 0.00 L 1132.00 0.00 L 1132.00 926.00 L 0.00 926.00 L 0.00 0.00 Z" />
<path fill="#000000" d=" M 537.49 5.41 C 547.68 5.33 557.89 5.27 568.08 5.43 C 562.95 12.08 556.97 19.06 556.27 27.80 C 564.38 26.11 571.22 20.97 576.69 14.96 C 576.74 25.33 576.76 35.70 576.68 46.06 C 571.11 40.10 564.27 34.98 556.18 33.14 C 556.94 41.32 562.40 48.03 568.34 53.27 C 557.85 53.41 547.36 53.40 536.87 53.27 C 542.81 47.96 548.24 41.33 549.21 33.14 C 540.96 34.87 534.02 40.14 528.56 46.36 C 528.45 35.81 528.42 25.26 528.57 14.71 C 534.01 20.94 540.99 26.29 549.31 27.79 C 548.10 19.13 542.28 12.34 537.49 5.41 Z" />
<path fill="#000000" d=" M 783.67 38.35 C 781.60 35.29 776.86 31.99 779.80 28.02 C 782.69 28.87 784.99 30.82 786.98 33.01 C 823.43 68.67 859.80 104.40 896.24 140.08 C 899.80 132.00 900.16 123.05 899.16 114.39 C 911.99 120.90 923.11 132.38 926.30 146.73 C 935.45 146.85 944.68 148.23 953.13 151.88 C 959.34 154.31 964.81 158.24 970.91 160.89 C 973.89 162.29 977.26 161.59 980.21 160.48 C 980.53 167.84 973.00 171.39 967.03 173.17 C 978.06 176.20 988.73 182.17 995.01 192.02 C 999.35 198.07 1001.88 205.46 1007.47 210.57 C 1010.09 213.13 1013.74 214.07 1017.20 214.93 C 1013.31 219.94 1006.40 219.68 1000.85 218.27 C 1008.25 229.03 1012.17 241.95 1012.29 254.99 C 1012.43 264.50 1009.94 274.25 1012.61 283.60 C 1013.66 287.78 1016.60 291.03 1019.35 294.20 C 1008.93 295.95 1001.24 287.30 995.37 280.01 C 998.51 292.20 998.01 304.99 996.20 317.35 C 995.18 323.91 994.46 330.79 996.70 337.20 C 993.82 337.50 990.74 337.42 988.30 335.67 C 983.31 332.31 981.28 326.30 979.48 320.86 C 977.99 326.60 975.32 332.01 974.10 337.78 C 976.42 340.69 979.91 342.52 982.68 345.04 C 971.99 356.63 961.23 368.16 950.57 379.78 C 949.35 379.34 948.15 378.86 946.96 378.40 C 941.20 385.41 935.26 392.54 931.77 401.02 C 929.62 406.34 928.85 412.40 930.82 417.91 C 934.71 429.70 942.10 439.87 949.06 450.00 C 953.78 456.83 958.91 463.36 963.79 470.07 C 963.39 465.40 962.85 460.40 965.20 456.12 C 967.87 450.17 974.74 447.08 981.03 447.59 C 993.60 448.37 1004.83 460.30 1003.87 473.05 C 1004.12 479.82 999.09 486.07 992.68 487.93 C 986.94 489.78 980.93 487.93 975.69 485.45 C 983.94 495.92 991.93 506.61 999.20 517.79 C 1005.42 526.98 1009.19 537.54 1015.12 546.91 C 1020.13 554.91 1025.63 563.29 1034.11 567.96 C 1041.70 572.19 1051.14 570.53 1058.52 566.67 C 1066.33 562.65 1071.52 554.67 1073.12 546.15 C 1076.03 525.57 1066.56 505.14 1052.22 490.78 C 1036.26 473.75 1016.15 460.66 1002.76 441.24 C 993.52 428.45 988.70 412.73 988.58 397.00 C 988.30 386.00 991.20 374.72 997.79 365.80 C 1005.09 356.02 1015.66 348.51 1027.62 345.75 C 1039.38 343.05 1052.94 345.79 1061.38 354.85 C 1069.26 354.09 1078.14 354.18 1084.60 359.42 C 1091.96 365.60 1093.44 375.70 1095.17 384.60 C 1096.78 392.44 1097.85 401.27 1103.88 407.14 C 1106.59 410.06 1110.65 410.73 1114.12 412.40 C 1106.84 414.72 1098.38 414.48 1091.89 410.14 C 1082.78 404.83 1077.62 395.32 1072.94 386.28 C 1073.56 395.72 1077.53 405.01 1084.33 411.66 C 1093.91 421.81 1107.63 426.19 1118.72 434.28 C 1123.72 437.89 1127.77 443.62 1127.66 450.00 C 1127.72 452.68 1127.45 455.37 1127.02 458.02 C 1125.75 451.76 1120.64 447.53 1115.22 444.79 C 1102.15 437.85 1087.67 434.13 1074.46 427.50 C 1065.55 422.94 1056.57 417.70 1050.21 409.80 C 1041.91 399.70 1039.33 385.43 1042.92 372.95 C 1044.05 368.72 1046.62 365.14 1048.93 361.49 C 1041.69 357.08 1032.30 357.06 1024.73 360.65 C 1014.08 365.53 1005.72 375.29 1002.76 386.66 C 1000.58 394.57 1001.38 402.95 1003.11 410.87 C 1006.04 423.72 1013.37 435.14 1022.42 444.55 C 1037.53 460.79 1056.35 473.34 1069.96 491.02 C 1078.61 502.14 1084.71 515.54 1085.73 529.71 C 1087.20 539.05 1085.88 548.79 1082.43 557.57 C 1080.00 563.84 1075.51 568.94 1070.74 573.55 C 1078.82 573.77 1086.27 569.84 1092.31 564.77 C 1090.10 572.62 1085.59 580.34 1078.23 584.34 C 1071.95 588.05 1064.19 588.67 1057.18 587.02 C 1053.48 586.21 1050.80 583.39 1047.59 581.68 C 1044.60 581.47 1041.60 581.60 1038.62 581.52 C 1041.99 588.01 1046.10 594.57 1052.45 598.52 C 1055.78 600.71 1059.85 600.90 1063.65 601.66 C 1056.86 607.34 1047.23 609.53 1038.70 607.11 C 1026.51 603.79 1017.24 592.99 1014.13 580.97 C 1012.83 576.41 1013.35 571.62 1013.31 566.95 C 1009.34 561.43 1005.24 555.94 1002.22 549.80 C 999.68 545.68 998.71 540.54 994.96 537.25 C 990.26 539.81 991.66 545.65 991.41 550.03 C 990.20 564.80 982.40 577.76 977.44 591.44 C 974.38 599.21 974.15 608.36 978.07 615.88 C 981.62 622.87 986.85 629.25 993.59 633.35 C 998.36 636.66 1002.92 631.59 1007.20 629.87 C 1009.89 628.49 1012.75 630.80 1013.18 633.50 C 1014.18 640.33 1012.48 647.16 1012.65 654.00 C 1013.26 667.03 1014.12 680.05 1014.76 693.09 C 1017.58 687.75 1021.39 682.73 1026.81 679.82 C 1032.80 676.50 1040.34 675.21 1046.78 678.01 C 1053.35 680.64 1057.55 688.04 1056.38 695.04 C 1054.57 707.69 1041.59 717.17 1029.00 715.62 C 1023.31 715.46 1018.67 711.66 1015.49 707.24 C 1015.91 716.50 1016.95 725.89 1015.28 735.09 C 1014.30 740.48 1011.31 745.69 1006.34 748.28 C 1004.08 745.54 1001.50 742.67 997.83 742.01 C 993.80 740.76 988.91 743.19 987.65 747.18 C 986.98 750.81 990.36 753.13 992.49 755.49 C 995.31 758.14 995.89 762.32 995.29 765.99 C 993.86 770.21 990.47 773.36 986.98 775.95 C 978.64 781.91 968.37 785.81 957.99 784.62 C 960.86 773.99 963.98 763.42 967.02 752.84 C 960.61 758.18 958.05 766.47 955.21 774.01 C 953.86 777.16 952.24 780.77 948.82 782.11 C 946.11 783.22 943.40 781.68 940.99 780.59 C 949.16 768.53 954.73 754.57 965.15 744.14 C 971.64 738.69 980.04 734.74 983.76 726.65 C 988.81 715.53 989.00 703.01 988.69 691.01 C 988.77 683.36 987.25 675.81 987.29 668.16 C 986.52 662.01 987.38 654.98 983.16 649.89 C 980.59 646.96 976.42 647.60 972.99 647.91 C 967.40 648.62 962.16 646.15 957.21 643.92 C 946.76 638.89 937.11 632.24 928.46 624.54 C 920.32 617.64 913.16 609.53 907.53 600.46 C 903.46 593.91 900.47 586.57 899.60 578.86 C 899.28 573.76 899.60 568.65 899.96 563.56 C 889.85 563.47 878.77 564.11 870.33 570.30 C 862.48 576.11 860.29 586.51 860.61 595.75 C 860.94 602.22 861.71 609.56 866.94 614.07 C 869.12 616.37 872.58 618.38 872.52 621.93 C 871.32 625.49 867.34 626.75 864.27 628.24 C 835.90 640.34 807.41 652.12 778.91 663.90 C 775.21 665.35 770.39 666.85 766.98 664.01 C 763.46 660.89 761.26 656.17 756.68 654.37 C 753.80 652.80 750.13 654.08 748.03 656.34 C 746.60 657.47 748.13 659.07 748.80 660.15 C 750.64 662.78 753.33 665.41 752.80 668.95 C 752.73 674.65 748.35 679.29 743.28 681.31 C 734.13 685.09 723.96 684.79 714.25 684.27 C 716.81 679.86 719.50 675.51 722.10 671.12 C 723.78 668.07 725.70 664.88 725.57 661.27 C 722.74 661.33 721.37 663.93 719.94 665.95 C 716.12 671.73 711.51 676.92 707.49 682.55 C 703.49 682.69 699.46 682.58 695.56 681.65 C 705.10 671.50 715.24 661.94 725.10 652.10 C 733.88 643.66 746.23 640.96 757.91 639.43 C 776.41 636.81 795.02 633.85 812.73 627.68 C 820.62 624.69 829.31 621.59 834.43 614.48 C 837.62 610.00 836.22 604.18 834.34 599.49 C 830.41 590.60 821.13 585.93 816.14 577.79 C 809.09 567.35 809.70 553.91 812.08 542.09 C 814.72 529.79 823.23 519.18 834.47 513.64 C 852.90 504.27 874.16 503.43 894.43 503.36 C 890.50 491.37 880.42 482.47 869.90 476.13 C 858.61 469.06 844.65 468.67 833.30 461.72 C 818.55 454.01 808.62 439.15 804.80 423.20 C 803.74 418.55 802.72 413.86 802.40 409.09 C 786.91 407.65 771.19 408.25 755.91 404.92 C 749.98 403.84 744.08 401.67 737.98 402.40 C 733.77 403.17 731.09 408.52 733.62 412.22 C 738.88 421.28 744.02 430.42 749.62 439.27 C 751.57 443.23 756.88 441.55 760.08 443.88 C 762.97 444.99 764.14 448.05 763.76 450.96 C 764.13 454.95 758.47 456.60 759.42 460.69 C 759.55 463.17 762.80 463.93 764.82 463.27 C 767.07 462.25 767.00 459.32 768.82 457.88 C 771.78 456.93 774.96 457.25 778.03 457.27 C 781.34 457.49 785.32 457.56 787.46 460.53 C 793.70 467.96 800.78 475.55 803.02 485.28 C 795.27 483.04 787.92 479.49 779.98 477.92 C 778.16 477.43 776.27 477.70 774.46 477.96 C 775.46 478.82 776.43 479.81 777.72 480.27 C 783.42 482.50 789.31 484.56 794.34 488.14 C 794.87 491.66 794.12 495.25 794.01 498.80 C 782.05 490.43 768.76 484.25 755.36 478.58 C 750.14 476.08 745.83 471.78 743.34 466.55 C 735.23 448.28 725.62 430.70 715.63 413.39 C 713.16 408.98 709.38 404.42 710.57 399.02 C 713.49 394.23 717.14 389.91 720.16 385.18 C 722.92 380.61 728.74 382.89 732.99 383.12 C 742.68 383.49 753.02 384.12 761.88 379.40 C 750.19 366.56 739.42 352.90 728.93 339.08 C 726.26 334.91 722.43 330.35 717.00 330.54 C 710.89 330.32 706.98 335.63 702.27 338.60 C 698.28 333.90 693.97 329.49 689.82 324.94 C 694.63 321.02 699.71 317.45 704.48 313.46 C 707.27 311.12 709.73 308.31 712.99 306.58 C 717.99 306.30 723.03 306.41 728.04 306.72 C 732.41 307.34 734.98 311.19 738.01 313.95 C 744.47 319.95 751.63 325.13 758.65 330.45 C 761.92 327.22 766.18 324.48 770.94 324.57 C 777.21 324.64 782.71 329.18 785.04 334.83 C 787.53 340.17 786.81 346.24 786.13 351.90 C 791.39 356.22 796.30 360.95 801.37 365.49 C 802.67 361.54 802.99 357.36 804.24 353.39 C 808.84 337.81 817.18 323.57 826.83 310.59 C 826.61 308.90 825.90 307.15 826.61 305.49 C 831.19 291.36 835.71 277.20 839.86 262.94 C 847.38 265.38 854.61 268.64 862.10 271.18 C 877.38 256.81 897.64 249.74 914.27 237.26 C 920.84 232.21 927.41 226.26 930.00 218.12 C 932.47 208.98 929.55 199.15 923.32 192.18 C 925.90 198.95 926.32 207.03 922.49 213.42 C 917.59 221.88 908.81 228.18 899.05 229.47 C 894.70 229.78 890.07 230.03 886.15 227.79 C 881.34 225.77 877.95 221.29 872.98 219.68 C 870.12 220.15 867.82 222.01 865.44 223.49 C 865.76 232.14 863.83 243.24 854.56 246.60 C 855.60 241.71 855.78 236.55 853.80 231.87 C 849.75 233.48 849.30 238.30 849.02 242.05 C 848.82 252.05 840.87 261.25 830.97 262.85 C 832.99 256.80 835.85 250.40 834.26 243.90 C 830.90 244.35 828.80 247.30 825.79 248.45 C 821.94 248.45 820.44 244.28 819.53 241.21 C 817.43 240.77 814.61 241.52 813.07 239.77 C 812.80 237.15 815.19 235.45 816.94 233.93 C 824.19 228.25 834.12 227.25 840.93 220.86 C 842.13 219.79 841.57 217.94 841.76 216.52 C 839.33 215.39 836.60 215.10 834.03 215.87 C 825.46 218.17 817.72 222.67 810.11 227.10 C 807.52 228.55 804.89 230.10 801.93 230.59 C 799.55 229.60 800.46 226.93 800.29 224.94 C 800.83 220.03 797.30 215.83 797.53 210.96 C 797.39 208.48 798.97 206.33 800.71 204.72 C 814.09 192.52 829.42 182.45 845.70 174.56 C 846.19 169.83 848.24 164.97 852.61 162.62 C 860.09 159.15 868.23 157.20 875.53 153.34 C 844.83 115.07 814.33 76.64 783.67 38.35 Z" />
<path fill="#000000" d=" M 193.50 53.12 C 197.39 51.67 201.22 50.02 205.24 48.93 C 205.42 53.02 205.55 57.12 205.89 61.21 C 208.85 58.99 211.61 56.52 214.42 54.11 C 216.11 57.94 217.61 61.87 218.77 65.89 C 215.00 65.75 211.24 65.45 207.48 65.47 C 210.20 70.36 215.31 73.09 219.19 76.91 C 223.10 81.03 220.91 88.74 215.46 90.28 C 210.84 91.98 205.07 88.91 204.34 83.96 C 204.01 78.61 203.90 73.23 203.23 67.90 C 200.47 70.13 198.40 73.03 195.99 75.59 C 193.99 71.79 192.06 67.91 190.79 63.79 C 194.21 63.62 197.62 63.53 201.03 63.27 C 199.21 59.42 195.77 56.68 193.50 53.12 Z" />
<path fill="#000000" d=" M 241.54 50.80 C 245.71 49.72 250.28 53.66 249.60 57.99 C 249.81 64.43 239.87 66.12 237.07 60.88 C 234.92 57.03 237.04 51.65 241.54 50.80 Z" />
<path fill="#000000" d=" M 257.38 54.26 C 261.21 52.11 266.40 54.86 267.07 59.11 C 268.12 63.45 263.76 67.80 259.40 66.77 C 253.03 66.50 251.52 56.64 257.38 54.26 Z" />
<path fill="#000000" d=" M 524.06 80.44 C 525.76 68.82 535.32 59.15 546.75 56.82 C 546.80 64.70 546.75 72.59 546.76 80.47 C 539.19 80.48 531.63 80.53 524.06 80.44 Z" />
<path fill="#000000" d=" M 558.46 56.76 C 569.90 59.13 579.52 68.76 581.09 80.46 C 573.53 80.51 565.99 80.48 558.44 80.48 C 558.40 72.57 558.35 64.67 558.46 56.76 Z" />
<path fill="#000000" d=" M 226.31 62.08 C 230.36 60.72 235.39 64.50 234.66 68.92 C 234.99 74.47 227.15 77.38 223.43 73.49 C 219.40 70.32 221.25 63.00 226.31 62.08 Z" />
<path fill="#000000" d=" M 267.58 68.55 C 271.89 65.38 278.60 69.64 277.67 74.87 C 278.09 81.01 268.72 83.08 265.68 78.29 C 263.46 75.24 264.36 70.52 267.58 68.55 Z" />
<path fill="#000000" d=" M 189.36 78.34 C 193.61 76.40 199.10 80.37 198.49 85.05 C 198.43 90.11 191.90 93.12 187.89 90.12 C 183.50 87.42 184.45 79.90 189.36 78.34 Z" />
<path fill="#000000" d=" M 170.77 79.87 C 173.00 78.92 175.87 78.81 177.98 80.08 C 182.22 82.69 181.61 90.27 176.78 91.91 C 172.71 93.92 167.45 90.49 167.54 86.00 C 167.27 83.51 168.78 81.22 170.77 79.87 Z" />
<path fill="#000000" d=" M 246.06 78.69 C 249.05 80.67 252.13 83.01 253.40 86.51 C 254.04 89.95 253.85 93.56 252.72 96.88 C 254.89 96.45 257.30 95.17 259.40 96.52 C 261.84 97.90 261.64 101.00 262.04 103.40 C 260.04 102.33 257.81 102.11 255.59 102.40 C 255.31 104.93 254.40 108.20 256.66 110.11 C 258.93 112.50 263.06 112.67 265.49 110.42 C 269.18 107.33 270.05 102.22 270.63 97.70 C 268.17 98.74 266.60 100.92 265.05 102.98 C 264.59 97.82 264.01 92.67 263.70 87.50 C 265.83 89.76 267.98 92.07 270.77 93.53 C 270.03 90.31 268.59 87.34 266.96 84.50 C 270.24 84.37 273.53 84.32 276.81 84.30 C 275.44 91.10 274.50 98.06 274.78 105.00 C 275.39 109.72 275.57 114.48 275.90 119.23 C 246.83 126.19 218.90 137.77 193.16 152.91 C 186.20 143.43 178.16 134.48 168.09 128.23 C 170.68 125.96 173.23 123.64 175.80 121.34 C 176.45 124.17 177.27 126.96 178.39 129.65 C 178.83 129.58 179.72 129.46 180.16 129.40 C 180.25 127.04 180.33 124.67 180.48 122.32 C 183.94 125.67 186.79 129.58 189.73 133.38 C 187.23 133.18 184.74 132.91 182.23 132.91 C 185.55 137.10 190.99 139.76 196.38 138.71 C 201.80 137.74 202.51 128.24 196.85 127.14 C 194.01 126.35 193.29 130.02 192.14 131.81 C 190.88 129.75 188.87 127.68 189.50 125.05 C 189.80 122.48 192.51 121.67 194.52 120.76 C 191.28 118.71 187.72 116.44 186.38 112.63 C 185.18 109.53 185.76 106.18 186.43 103.04 C 190.89 103.85 195.20 106.54 197.03 110.82 C 197.86 113.10 198.18 115.52 198.58 117.91 C 200.16 116.72 201.71 114.98 203.90 115.35 C 207.21 115.22 208.27 119.05 209.20 121.54 C 207.31 121.41 205.43 121.32 203.54 121.32 C 202.00 124.10 202.85 127.78 205.75 129.26 C 211.27 132.21 218.26 129.65 222.38 125.43 C 225.59 121.74 224.21 116.60 222.79 112.47 C 218.93 114.65 217.16 118.85 215.99 122.90 C 213.20 118.46 210.97 113.71 208.59 109.06 C 212.72 110.53 217.21 110.95 221.34 109.20 C 218.00 106.16 214.07 103.90 210.02 101.94 C 216.12 99.29 222.31 96.85 228.50 94.42 C 227.15 98.70 225.82 103.03 225.48 107.53 C 229.68 105.93 232.32 102.32 234.92 98.89 C 236.16 103.81 237.81 108.63 239.05 113.55 C 235.31 111.59 231.18 109.68 226.87 110.77 C 228.44 114.05 230.21 117.63 233.65 119.32 C 239.49 120.76 246.01 118.47 249.58 113.60 C 252.33 110.27 250.73 103.34 245.54 104.16 C 244.72 105.44 243.92 106.74 243.12 108.04 C 241.71 105.65 240.18 102.48 241.97 99.89 C 243.44 97.72 246.25 98.29 248.49 98.32 C 246.05 95.32 243.44 91.99 243.32 87.96 C 243.07 84.62 244.67 81.60 246.06 78.69 Z" />
<path fill="#000000" d=" M 454.55 88.70 C 458.06 87.54 462.31 88.39 464.65 91.39 C 469.24 96.21 466.50 105.52 459.74 106.53 C 454.72 107.71 449.10 104.21 448.49 99.00 C 447.70 94.68 450.47 90.19 454.55 88.70 Z" />
<path fill="#000000" d=" M 644.50 88.67 C 650.77 86.30 658.00 92.25 656.71 98.86 C 656.15 106.26 645.80 109.42 640.93 104.07 C 636.00 99.61 638.20 90.59 644.50 88.67 Z" />
<path fill="#000000" d=" M 477.45 91.43 C 483.71 88.00 492.13 93.79 490.90 100.89 C 490.40 107.84 481.18 111.44 475.93 107.06 C 470.63 103.30 471.43 94.03 477.45 91.43 Z" />
<path fill="#000000" d=" M 524.19 91.45 C 543.08 91.16 561.99 91.34 580.90 91.36 C 579.29 97.92 575.73 104.18 570.18 108.17 C 562.86 113.74 552.83 115.68 544.06 112.77 C 534.26 109.80 526.69 101.29 524.19 91.45 Z" />
<path fill="#000000" d=" M 619.45 91.42 C 624.16 89.00 630.62 91.37 632.38 96.44 C 632.95 99.55 633.17 103.32 630.72 105.72 C 627.40 109.85 620.43 110.05 616.87 106.15 C 612.58 102.01 613.85 93.78 619.45 91.42 Z" />
<path fill="#000000" d=" M 160.44 94.33 C 164.53 91.62 170.91 94.93 170.51 99.98 C 171.11 105.24 164.35 108.51 160.23 105.70 C 156.13 103.40 156.32 96.52 160.44 94.33 Z" />
<path fill="#000000" d=" M 432.46 95.63 C 439.53 93.28 447.01 101.50 443.54 108.20 C 441.10 115.20 430.05 115.77 426.85 109.13 C 423.55 104.17 426.82 96.97 432.46 95.63 Z" />
<path fill="#000000" d=" M 667.52 95.69 C 671.54 94.57 676.25 96.02 678.35 99.78 C 681.02 104.32 679.16 110.98 674.16 113.01 C 669.10 115.57 662.35 112.20 661.28 106.68 C 660.07 102.09 662.99 97.01 667.52 95.69 Z" />
<path fill="#000000" d=" M 598.40 97.42 C 602.95 96.24 608.40 98.54 609.77 103.25 C 612.20 108.90 607.03 115.89 601.00 115.60 C 596.24 115.87 592.00 111.65 591.63 107.04 C 591.25 102.80 594.14 98.33 598.40 97.42 Z" />
<path fill="#000000" d=" M 500.27 97.92 C 505.99 95.18 513.76 99.38 513.62 105.98 C 514.25 112.67 506.19 117.96 500.30 114.70 C 493.52 111.80 493.41 100.81 500.27 97.92 Z" />
<path fill="#000000" d=" M 522.43 107.50 C 525.36 106.88 528.81 106.74 531.24 108.79 C 536.21 112.13 536.17 120.74 531.04 123.92 C 525.86 127.75 517.39 124.51 516.56 117.98 C 515.70 113.62 518.33 109.07 522.43 107.50 Z" />
<path fill="#000000" d=" M 576.38 107.48 C 579.53 106.82 583.31 106.79 585.72 109.27 C 590.03 112.68 589.92 120.16 585.53 123.46 C 581.29 127.13 573.74 125.78 571.32 120.62 C 568.79 115.83 571.30 109.31 576.38 107.48 Z" />
<path fill="#000000" d=" M 163.43 111.44 C 167.46 109.61 172.82 112.48 172.85 117.07 C 173.60 122.24 166.98 126.34 162.68 123.35 C 158.12 120.90 158.51 113.22 163.43 111.44 Z" />
<path fill="#000000" d=" M 413.49 111.64 C 418.89 109.17 425.84 113.11 426.38 119.04 C 427.00 123.37 424.05 127.90 419.84 129.10 C 415.14 130.74 409.57 127.73 408.16 123.01 C 406.50 118.62 409.21 113.34 413.49 111.64 Z" />
<path fill="#000000" d=" M 686.31 111.13 C 692.85 109.42 699.36 116.47 697.08 122.85 C 695.49 129.56 685.80 131.89 681.41 126.54 C 676.44 121.72 679.38 112.14 686.31 111.13 Z" />
<path fill="#000000" d=" M 280.49 117.47 C 284.95 117.34 289.82 116.75 293.88 119.04 C 296.08 120.23 297.14 122.59 298.03 124.80 C 305.44 119.90 314.08 117.13 322.94 116.58 C 325.33 122.10 327.41 127.92 327.50 134.01 C 327.69 139.97 326.40 145.89 324.48 151.50 C 329.98 152.78 335.26 154.84 340.18 157.64 C 345.05 160.50 350.65 162.04 356.32 161.40 C 353.01 165.53 348.68 169.13 343.33 170.07 C 336.84 171.19 330.33 169.49 323.95 168.43 C 333.88 172.12 342.93 178.08 350.04 185.96 C 356.75 192.65 362.03 200.59 368.58 207.42 C 372.20 211.10 376.79 213.72 381.82 214.88 C 377.55 217.91 372.51 220.36 367.12 219.62 C 353.41 217.91 344.71 204.22 330.88 202.90 C 341.40 208.76 351.80 215.08 360.45 223.57 C 367.97 230.54 373.67 239.11 379.65 247.36 C 381.95 250.57 385.02 253.24 388.93 254.22 C 384.81 258.28 378.57 260.17 373.01 258.13 C 363.97 255.00 356.27 248.81 346.95 246.35 C 358.55 254.73 370.28 263.89 377.21 276.72 C 382.05 285.31 383.47 295.61 381.39 305.23 C 389.33 312.87 391.76 324.14 392.47 334.72 C 399.81 330.03 407.92 326.68 416.34 324.50 C 410.62 331.05 404.44 337.21 399.06 344.06 C 383.90 362.92 371.71 384.18 363.09 406.79 C 354.30 398.61 345.96 389.96 337.08 381.89 C 333.89 379.06 330.19 376.26 325.73 376.24 C 342.26 395.66 359.84 414.18 376.63 433.38 C 383.88 441.62 392.30 449.59 395.42 460.48 C 398.05 468.31 396.31 477.17 400.49 484.53 C 402.88 489.19 406.50 493.17 408.36 498.11 C 409.08 501.64 407.99 505.37 409.31 508.81 C 410.89 514.41 415.73 519.53 413.87 525.71 C 412.28 532.69 404.85 535.67 398.63 537.27 C 400.28 533.25 401.64 528.79 400.40 524.46 C 398.75 519.95 393.92 517.90 389.57 516.95 C 389.70 522.30 389.63 527.97 386.69 532.66 C 382.81 539.44 373.89 542.06 366.67 539.53 C 374.69 535.57 375.28 525.42 372.96 517.83 C 368.83 524.42 362.43 531.10 354.00 530.69 C 347.21 530.97 341.95 525.52 339.05 519.92 C 342.12 520.83 345.52 522.58 348.68 520.91 C 351.66 519.58 354.81 516.23 353.35 512.73 C 350.99 509.36 346.83 507.25 345.75 503.03 C 345.23 498.21 347.15 492.97 351.25 490.19 C 355.14 487.27 360.35 484.93 361.67 479.79 C 362.02 476.58 362.46 472.52 359.59 470.28 C 356.57 467.67 352.01 468.84 349.36 471.37 C 346.99 473.41 346.37 476.61 345.30 479.39 C 341.10 475.93 341.25 469.96 341.51 465.03 C 342.06 458.67 343.04 452.30 342.38 445.90 C 341.41 450.51 340.81 455.72 337.00 458.99 C 333.26 462.24 328.76 464.49 325.02 467.77 C 321.64 461.64 323.95 454.58 323.83 448.01 C 323.86 444.10 323.11 440.23 321.82 436.56 C 320.62 441.08 319.72 445.91 316.63 449.60 C 314.33 452.37 312.42 455.44 311.23 458.85 C 299.72 453.83 286.66 453.36 274.46 455.67 C 267.66 456.90 261.17 459.77 255.92 464.29 C 270.92 476.77 289.03 485.20 303.03 498.97 C 310.53 506.33 315.87 516.11 316.84 526.67 C 318.14 534.23 315.94 542.17 311.26 548.21 C 303.87 557.92 293.00 563.98 284.08 572.08 C 280.46 575.45 276.78 579.66 276.66 584.87 C 277.38 590.81 280.79 596.01 284.21 600.77 C 294.42 614.23 307.52 625.44 322.14 633.87 C 328.17 636.99 334.77 640.17 341.75 639.50 C 347.48 638.39 350.17 631.72 356.03 630.92 C 361.94 630.35 367.92 630.85 373.82 631.43 C 378.47 632.14 381.23 636.56 382.19 640.82 C 389.90 642.84 396.43 649.76 396.72 657.92 C 396.96 662.46 394.39 666.42 391.68 669.83 C 389.46 665.43 387.19 660.33 382.24 658.46 C 378.37 656.45 374.14 658.25 370.44 659.70 C 371.76 664.07 373.16 668.80 371.46 673.29 C 369.64 680.34 362.87 684.55 356.30 686.53 C 358.06 682.38 360.58 677.79 359.00 673.19 C 358.09 670.33 354.83 669.15 352.07 669.45 C 348.47 669.41 346.88 673.56 343.58 674.30 C 336.79 675.26 329.88 675.79 323.08 674.59 C 320.56 674.56 318.91 672.34 317.46 670.57 C 313.31 665.12 309.71 658.73 303.54 655.32 C 300.06 653.12 296.47 657.63 297.15 661.02 C 296.55 664.31 298.55 666.94 300.54 669.30 C 293.31 669.25 285.39 667.19 280.88 661.12 C 274.16 652.43 275.11 640.55 269.66 631.28 C 268.29 628.81 266.02 627.05 263.76 625.45 C 263.90 633.73 265.02 642.10 263.42 650.32 C 257.29 645.93 252.28 640.18 248.02 634.00 C 243.98 627.96 240.57 621.29 239.51 614.03 C 238.75 609.90 238.60 605.48 236.33 601.82 C 234.26 598.45 229.84 597.60 227.64 594.35 C 226.49 592.51 226.54 590.22 226.91 588.17 C 227.80 585.74 230.86 585.75 232.88 584.78 C 241.02 582.25 247.85 575.74 250.34 567.54 C 252.21 562.57 251.68 557.20 251.75 552.01 C 251.96 540.45 247.60 528.80 239.57 520.44 C 236.00 516.46 231.61 513.36 227.11 510.52 C 227.47 529.10 228.68 548.13 223.26 566.18 C 218.82 582.36 208.99 596.49 197.31 608.31 C 183.46 622.21 166.85 633.58 148.52 640.68 C 137.57 645.10 125.32 649.08 118.11 659.08 C 112.97 666.49 114.21 675.91 114.88 684.37 C 116.57 699.22 120.69 714.70 130.96 726.03 C 136.03 731.53 143.32 735.44 150.92 735.23 C 158.35 734.35 160.65 725.54 167.45 723.40 C 173.80 721.32 181.09 721.90 187.02 724.99 C 189.38 726.08 190.90 728.23 192.22 730.39 C 198.00 729.90 204.51 730.84 208.44 735.56 C 211.67 739.05 211.13 744.21 210.36 748.53 C 209.24 753.38 204.92 756.64 200.26 757.77 C 200.67 754.84 202.14 751.57 199.91 749.00 C 196.66 745.17 189.70 743.82 186.04 747.80 C 187.97 753.81 190.76 760.43 187.78 766.63 C 185.75 771.90 180.16 774.08 175.22 775.76 C 175.77 773.37 177.37 770.70 175.87 768.35 C 174.46 765.53 170.62 766.03 168.02 766.38 C 163.07 768.33 161.04 773.92 156.48 776.46 C 153.38 778.44 149.54 777.97 146.07 777.65 C 137.98 776.90 130.40 772.55 122.13 773.62 C 117.93 774.14 113.14 774.99 110.44 778.60 C 109.41 780.85 110.86 782.99 111.92 784.91 C 107.70 784.84 102.99 784.38 100.03 780.98 C 95.84 776.06 96.30 768.82 98.21 763.04 C 99.34 759.26 103.30 757.26 104.71 753.70 C 105.63 750.68 102.91 748.47 100.50 747.35 C 96.79 745.49 92.31 746.71 89.20 749.19 C 86.35 751.28 85.08 754.72 83.99 757.95 C 80.93 751.74 78.06 745.06 78.38 738.00 C 78.44 730.76 82.30 724.33 83.58 717.33 C 85.18 710.60 84.32 703.63 83.19 696.91 C 79.81 707.45 74.31 718.14 64.66 724.20 C 65.87 712.49 59.67 701.64 60.26 689.97 C 60.32 680.32 63.41 670.78 68.88 662.85 C 71.22 659.20 74.21 655.87 75.68 651.73 C 77.12 646.66 72.31 642.13 73.61 637.05 C 74.39 634.70 76.28 632.03 79.08 632.40 C 83.67 632.68 87.53 635.79 92.09 636.26 C 99.82 635.83 106.90 631.69 111.97 625.98 C 122.44 614.37 127.04 598.75 129.28 583.58 C 131.34 562.01 138.15 541.07 148.00 521.83 C 151.67 514.38 155.78 507.16 159.74 499.86 C 161.92 496.10 162.30 491.63 162.61 487.39 C 159.38 489.99 157.45 493.73 155.10 497.07 C 144.12 513.46 134.30 531.13 119.20 544.23 C 116.86 546.07 118.09 549.45 117.18 551.96 C 114.62 560.70 107.63 567.33 100.20 572.17 C 89.29 579.02 75.53 582.75 62.87 579.03 C 58.86 577.98 55.32 575.77 51.90 573.49 C 62.96 573.47 75.26 568.93 80.09 558.24 C 76.45 557.86 72.85 556.34 69.24 556.41 C 57.89 561.61 43.29 558.28 35.41 548.58 C 32.76 545.44 31.37 541.35 31.37 537.25 C 34.50 539.59 37.47 542.44 41.37 543.44 C 44.81 544.01 48.47 543.94 51.68 542.44 C 43.93 531.37 42.15 517.09 44.63 504.03 C 47.80 485.78 58.47 470.04 69.95 455.96 C 87.87 434.29 109.56 416.06 126.95 393.94 C 134.89 383.62 142.20 372.01 143.70 358.79 C 145.56 348.26 141.70 335.42 131.37 330.62 C 121.92 326.21 110.94 329.58 102.52 334.76 C 106.21 338.73 109.62 343.36 110.25 348.91 C 111.16 360.37 107.51 372.24 99.95 380.98 C 94.14 387.65 86.88 392.91 79.15 397.14 C 64.34 405.22 48.39 410.84 33.19 418.06 C 25.45 421.92 17.77 426.43 12.08 433.08 C 9.56 435.98 8.41 439.77 5.94 442.71 C 5.72 435.12 6.61 427.17 10.38 420.43 C 13.85 414.11 19.48 409.33 25.39 405.37 C 35.97 398.30 48.30 393.58 57.17 384.16 C 62.38 379.08 65.45 372.19 66.71 365.09 C 59.59 373.52 51.80 381.77 41.72 386.65 C 35.33 390.04 27.49 391.70 20.63 388.67 C 23.79 387.96 27.14 387.66 29.99 385.98 C 35.34 383.08 38.66 377.67 41.33 372.40 C 46.71 361.15 49.44 348.71 56.03 338.03 C 59.70 332.24 64.97 326.91 71.87 325.37 C 76.72 323.90 81.91 324.55 86.66 326.08 C 88.13 326.35 89.87 327.34 91.22 326.21 C 100.35 319.41 111.36 314.01 123.00 314.54 C 135.83 315.48 148.42 323.00 154.17 334.71 C 159.85 345.86 159.10 359.12 155.68 370.84 C 149.45 390.62 135.69 406.84 121.61 421.59 C 106.70 437.68 90.11 452.21 76.48 469.47 C 67.47 480.75 59.83 493.77 57.66 508.25 C 56.45 517.36 57.20 527.46 63.02 534.97 C 69.11 543.01 80.25 545.85 89.84 543.91 C 101.78 541.39 110.84 532.41 118.51 523.49 C 132.58 506.27 143.27 486.69 155.00 467.89 C 162.02 456.38 169.23 444.98 177.10 434.04 C 188.27 419.21 195.23 401.79 201.56 384.49 C 211.97 356.66 219.58 327.89 229.80 300.00 C 220.73 311.19 217.03 325.70 207.67 336.66 C 204.03 341.10 198.82 344.14 193.11 344.88 C 195.03 342.05 197.11 339.23 197.92 335.85 C 200.42 327.77 199.17 319.25 200.23 310.98 C 200.29 300.52 200.62 289.88 204.09 279.90 C 206.73 272.32 208.06 264.01 205.85 256.14 C 202.99 259.22 201.29 263.15 200.03 267.12 C 195.33 282.07 195.00 298.21 188.71 312.69 C 186.37 318.45 182.01 323.47 176.10 325.68 C 179.38 319.98 179.11 313.27 178.32 306.96 C 176.86 299.00 174.71 291.08 174.73 282.94 C 175.09 277.41 175.68 271.85 177.30 266.53 C 179.55 258.63 184.02 251.63 186.91 243.98 C 189.11 238.34 190.36 232.33 190.58 226.28 C 188.55 227.63 186.55 229.16 185.36 231.35 C 179.85 240.67 179.00 252.35 171.70 260.69 C 167.88 265.40 161.72 267.44 155.82 267.49 C 158.17 263.65 161.44 260.26 162.74 255.84 C 165.49 248.16 164.27 239.90 165.21 231.95 C 165.36 222.90 169.66 214.35 175.94 207.99 C 169.12 204.64 162.56 200.08 158.53 193.49 C 156.49 189.95 154.83 185.82 155.46 181.67 C 162.73 175.96 171.93 173.55 180.95 172.47 C 178.55 165.33 183.92 159.34 189.00 155.16 C 191.05 157.53 193.43 162.58 197.28 160.28 C 211.39 151.47 225.85 142.87 241.71 137.57 C 254.32 133.08 267.25 129.52 280.20 126.16 C 282.00 123.58 280.61 120.31 280.49 117.47 Z" />
<path fill="#000000" d=" M 536.68 123.29 C 540.19 124.67 543.80 125.79 547.50 126.58 C 547.47 139.64 547.47 152.70 547.50 165.76 C 543.87 165.78 540.25 165.81 536.64 165.69 C 536.72 151.56 536.64 137.42 536.68 123.29 Z" />
<path fill="#000000" d=" M 557.71 126.69 C 561.34 125.82 564.93 124.72 568.41 123.34 C 568.44 137.48 568.44 151.62 568.40 165.76 C 564.82 165.77 561.25 165.81 557.69 165.66 C 557.76 152.67 557.72 139.68 557.71 126.69 Z" />
<path fill="#000000" d=" M 403.47 132.60 C 409.58 129.70 417.25 135.26 416.35 141.98 C 416.04 148.69 407.46 152.94 402.00 148.93 C 395.84 145.37 396.71 134.97 403.47 132.60 Z" />
<path fill="#000000" d=" M 694.46 132.68 C 700.17 129.83 707.78 134.58 707.52 140.99 C 708.02 147.87 699.51 152.96 693.66 149.31 C 687.21 146.15 687.59 135.12 694.46 132.68 Z" />
<path fill="#ffffff" d=" M 260.96 162.91 C 273.12 157.88 285.51 153.24 296.89 146.55 C 294.89 150.84 292.71 155.21 292.37 160.02 C 291.80 163.26 291.79 166.90 289.60 169.57 C 286.02 174.10 279.52 175.81 274.14 173.80 C 268.55 172.01 264.10 167.77 260.96 162.91 Z" />
<path fill="#000000" d=" M 400.58 154.69 C 404.52 153.62 409.50 154.33 411.74 158.14 C 414.39 162.06 413.53 167.82 409.71 170.67 C 405.81 174.11 399.13 173.05 396.35 168.69 C 392.94 164.08 395.04 156.53 400.58 154.69 Z" />
<path fill="#000000" d=" M 697.64 154.74 C 701.17 153.85 705.51 153.97 708.05 156.96 C 712.31 161.07 711.01 169.20 705.57 171.64 C 701.27 174.07 695.49 172.21 693.08 167.98 C 690.76 163.25 692.51 156.80 697.64 154.74 Z" />
<path fill="#000000" d=" M 475.82 179.92 C 475.20 171.02 481.11 163.62 484.91 156.07 C 488.73 163.27 495.30 168.99 497.46 177.03 C 498.42 186.01 491.59 193.08 488.73 201.09 C 484.79 193.81 477.13 188.48 475.82 179.92 Z" />
<path fill="#000000" d=" M 608.62 175.47 C 611.30 168.25 616.88 162.68 620.69 156.08 C 624.88 164.34 631.73 172.67 629.36 182.56 C 626.72 189.64 620.51 194.50 616.83 200.98 C 613.68 192.69 606.45 184.89 608.62 175.47 Z" />
<path fill="#ffffff" d=" M 859.57 175.62 C 863.03 172.01 868.93 171.67 873.32 173.67 C 878.44 175.93 882.93 179.38 888.13 181.50 C 876.81 183.02 865.39 185.29 855.25 190.79 C 856.75 185.77 856.59 180.10 859.57 175.62 Z" />
<path fill="#000000" d=" M 529.29 173.80 C 544.96 173.47 560.66 173.56 576.33 173.76 C 567.98 179.54 560.25 187.43 557.79 197.59 C 566.48 196.48 574.01 191.30 579.83 185.00 C 579.17 196.38 578.96 207.82 579.99 219.19 C 574.38 212.16 566.00 207.78 557.34 205.79 C 557.71 213.64 562.04 221.21 568.91 225.14 C 577.26 230.29 587.47 230.28 596.91 229.39 C 602.52 228.24 608.97 225.73 611.12 219.91 C 613.03 214.82 608.77 208.28 603.03 209.54 C 598.43 211.47 597.16 216.63 595.92 220.95 C 592.32 214.30 591.61 206.49 592.67 199.10 C 593.52 195.73 596.24 192.16 600.06 192.37 C 603.46 191.93 606.82 193.44 609.00 196.04 C 613.07 200.83 614.66 207.13 615.85 213.16 C 618.71 206.76 622.08 200.10 628.13 196.15 C 632.00 193.42 638.34 193.63 640.97 197.98 C 643.52 202.54 642.36 208.08 640.75 212.77 C 639.31 217.14 636.68 221.00 633.38 224.17 C 633.47 219.91 634.52 214.47 630.44 211.62 C 623.29 208.74 616.80 218.26 620.74 224.27 C 624.21 229.86 630.97 232.02 636.98 233.70 C 648.80 236.92 662.46 233.17 669.86 223.11 C 663.00 220.02 655.59 222.19 649.09 225.04 C 652.99 216.12 656.27 206.93 658.37 197.41 C 661.22 204.93 665.98 212.04 673.12 216.05 C 674.53 206.08 672.43 195.79 667.20 187.19 C 675.82 190.75 684.36 194.49 693.04 197.90 C 690.91 201.69 687.89 204.89 685.65 208.61 C 673.84 227.23 665.38 247.79 658.61 268.70 C 663.69 273.32 667.12 280.00 666.53 287.00 C 666.54 296.93 659.39 305.00 651.46 310.09 C 677.67 327.84 699.76 351.53 715.55 378.97 C 713.23 381.91 711.24 385.08 709.04 388.11 C 708.37 387.12 707.72 386.13 707.07 385.15 C 694.76 391.29 682.30 397.14 670.03 403.38 C 673.56 411.88 678.09 419.93 681.99 428.27 C 685.40 426.62 688.79 424.93 692.14 423.14 C 690.03 418.39 687.79 413.70 685.42 409.07 C 690.75 406.36 695.93 403.35 701.38 400.87 C 702.07 404.66 703.03 408.46 704.99 411.82 C 708.99 418.82 713.06 425.78 716.80 432.92 C 712.90 437.32 709.76 442.36 705.75 446.64 C 700.40 448.87 694.56 449.67 689.06 451.49 C 689.39 455.44 690.64 459.22 691.67 463.04 C 697.20 461.81 702.58 460.00 708.09 458.70 C 709.53 458.30 710.89 459.26 712.26 459.61 C 718.87 462.07 725.52 464.43 732.19 466.76 C 734.76 467.36 735.48 470.18 736.94 472.03 C 739.35 475.88 743.00 478.65 746.15 481.84 C 747.41 502.49 746.36 523.35 742.49 543.71 C 733.22 592.32 708.68 638.53 671.05 671.05 C 667.53 673.97 664.26 677.47 659.97 679.24 C 655.05 679.99 650.05 679.66 645.12 679.34 C 631.76 677.76 618.59 674.97 605.54 671.77 C 600.58 670.59 595.89 668.57 591.13 666.82 C 591.91 659.25 594.90 652.10 598.56 645.50 C 600.05 642.74 602.23 640.30 605.13 638.99 C 638.00 622.12 662.31 591.06 674.21 556.40 C 680.30 538.94 684.10 520.48 683.83 501.92 C 642.02 501.91 600.20 501.84 558.40 501.95 C 558.42 548.73 558.40 595.51 558.41 642.29 C 568.28 642.65 578.11 643.72 587.95 644.68 C 583.45 650.34 580.35 657.00 579.43 664.21 C 564.32 659.62 549.30 654.53 534.83 648.18 C 538.91 643.88 544.69 641.85 550.57 642.16 C 550.67 595.43 550.57 548.70 550.61 501.97 C 519.74 501.80 488.87 501.95 458.00 501.90 C 445.89 502.04 433.77 501.60 421.68 502.14 C 421.75 505.17 421.82 508.19 421.79 511.22 C 419.33 510.60 419.56 507.70 418.90 505.81 C 418.12 502.41 419.37 498.85 418.34 495.50 C 416.79 491.15 413.37 487.91 410.83 484.16 C 408.10 480.26 406.28 475.72 405.63 471.00 C 405.29 468.01 405.59 464.95 404.90 462.00 C 403.58 455.03 399.56 449.04 395.77 443.19 C 399.77 441.72 403.22 439.21 406.57 436.64 C 407.88 435.49 409.62 435.24 411.29 434.99 C 410.10 440.51 404.97 443.65 400.95 447.04 C 404.70 448.51 408.49 449.90 412.16 451.58 C 417.34 447.97 422.69 442.77 422.68 436.01 C 423.39 427.68 414.01 420.80 406.21 423.29 C 400.82 424.77 397.25 429.52 392.21 431.70 C 393.04 426.35 399.09 424.42 402.31 420.61 C 398.50 419.17 394.85 417.18 390.87 416.27 C 389.03 415.83 387.78 417.47 386.59 418.55 C 384.44 420.63 382.96 423.26 381.54 425.86 C 378.75 422.81 375.91 419.81 372.99 416.89 C 385.34 381.16 407.17 348.55 436.04 324.06 C 441.91 319.06 448.22 314.64 454.40 310.05 C 446.50 304.98 439.49 296.90 439.50 287.02 C 438.94 280.16 442.27 273.67 446.97 268.89 C 442.83 254.86 437.25 241.27 430.80 228.15 C 425.57 217.66 419.95 207.24 412.28 198.31 C 420.78 194.32 429.55 190.90 438.24 187.35 C 433.11 196.03 430.90 206.36 432.58 216.36 C 439.58 211.98 445.24 205.18 447.20 197.05 C 449.61 206.70 452.77 216.15 457.02 225.15 C 450.43 222.25 442.57 219.68 435.77 223.48 C 441.37 229.80 449.27 234.60 457.91 234.67 C 466.89 235.00 476.63 232.61 483.28 226.30 C 488.45 221.74 485.34 210.97 478.00 211.27 C 475.35 210.85 473.11 212.94 472.47 215.37 C 471.52 218.32 472.24 221.43 472.60 224.42 C 465.69 218.44 461.86 208.71 463.76 199.66 C 465.39 194.48 472.07 193.03 476.44 195.58 C 483.22 199.23 486.70 206.59 489.68 213.33 C 491.07 206.55 492.85 199.08 498.42 194.44 C 502.38 191.05 509.96 191.45 512.08 196.77 C 515.22 204.61 513.29 213.68 509.60 221.01 C 508.38 217.35 507.74 213.01 504.44 210.56 C 501.01 207.86 495.51 210.35 494.59 214.42 C 494.12 217.29 494.12 220.55 496.10 222.90 C 499.27 226.79 504.31 228.54 509.10 229.44 C 518.05 230.22 527.63 230.26 535.68 225.69 C 543.12 221.96 547.66 214.00 548.34 205.85 C 539.55 207.84 531.34 212.51 525.55 219.46 C 527.09 207.81 526.98 196.00 525.60 184.34 C 531.35 191.05 539.05 196.16 547.85 197.70 C 545.23 187.60 537.72 179.56 529.29 173.80 Z" />
<path fill="#ffffff" d=" M 222.52 177.73 C 226.41 176.32 230.21 174.57 234.31 173.85 C 235.06 180.22 234.48 187.19 230.42 192.43 C 227.08 196.93 220.95 198.94 215.59 197.30 C 212.37 195.73 209.92 193.02 206.94 191.08 C 203.69 188.72 199.87 187.37 196.08 186.17 C 205.10 184.07 213.84 180.94 222.52 177.73 Z" />
<path fill="#000000" d=" M 405.46 176.65 C 411.77 174.43 418.85 180.12 417.72 186.77 C 417.16 193.91 407.54 197.29 402.41 192.55 C 397.10 188.28 398.94 178.69 405.46 176.65 Z" />
<path fill="#000000" d=" M 693.60 176.70 C 696.41 176.12 699.78 175.93 702.12 177.91 C 707.27 181.14 707.24 189.86 702.16 193.15 C 697.99 196.11 691.16 194.90 688.72 190.21 C 685.71 185.44 688.23 178.46 693.60 176.70 Z" />
<path fill="#ffffff" d=" M 274.01 189.75 C 276.59 188.79 279.49 187.75 282.21 188.78 C 284.80 190.50 287.20 192.51 289.44 194.66 C 290.88 195.77 291.47 198.79 289.19 199.32 C 285.38 198.45 281.54 196.44 277.55 197.59 C 276.06 198.71 273.47 200.61 275.03 202.65 C 276.91 205.26 280.29 206.09 283.01 207.57 C 278.70 210.20 273.38 212.04 270.85 216.74 C 269.48 221.49 271.89 227.31 276.36 229.52 C 280.04 231.59 285.17 229.24 288.07 232.95 C 292.95 239.49 297.16 247.64 295.54 256.05 C 293.87 263.79 285.60 268.95 277.95 268.45 C 270.00 267.35 263.95 260.39 261.84 252.94 C 260.79 249.24 259.24 245.48 259.68 241.56 C 261.74 237.63 266.36 234.90 266.35 229.99 C 266.14 225.88 264.31 220.85 259.97 219.57 C 255.05 218.68 250.26 220.60 245.58 221.80 C 246.84 218.59 248.79 215.07 247.47 211.55 C 245.38 209.76 242.11 210.52 240.38 212.46 C 238.17 214.86 237.04 218.02 235.15 220.65 C 234.48 220.35 233.13 219.75 232.45 219.45 C 232.21 215.83 232.33 212.19 232.86 208.61 C 233.63 205.38 236.93 203.93 239.67 202.72 C 251.06 198.25 262.58 194.11 274.01 189.75 Z" />
<path fill="#ffffff" d=" M 514.49 260.74 C 535.30 259.42 556.17 259.18 577.01 260.01 C 597.58 260.95 618.47 262.28 638.22 268.56 C 645.53 271.24 654.22 275.03 656.48 283.25 C 658.42 292.09 651.16 299.28 644.22 303.38 C 642.41 304.67 640.62 302.76 639.04 302.01 C 626.04 293.93 611.54 288.46 596.63 285.10 C 574.52 280.00 551.53 279.18 529.01 281.65 C 507.05 284.30 485.18 290.47 466.33 302.31 C 464.92 303.05 463.23 304.54 461.63 303.36 C 455.55 299.55 448.71 293.90 449.12 285.99 C 448.67 280.97 452.37 276.91 456.14 274.15 C 462.39 269.84 469.80 267.64 477.12 265.88 C 489.38 263.01 501.95 261.70 514.49 260.74 Z" />
<path fill="#ffffff" d=" M 830.89 305.98 C 834.93 293.38 838.66 280.70 842.67 268.10 C 847.67 269.87 852.64 271.76 857.57 273.76 C 852.87 275.94 848.60 278.96 844.96 282.65 C 848.89 283.10 852.83 282.64 856.44 280.97 C 854.48 286.05 852.40 291.08 850.50 296.18 C 848.36 293.30 846.27 290.17 843.08 288.37 C 842.77 288.46 842.14 288.65 841.82 288.74 C 840.87 293.70 843.08 298.92 847.46 301.50 C 852.13 304.20 857.33 307.24 862.95 306.41 C 866.27 305.24 866.06 300.34 863.47 298.50 C 861.21 296.47 858.04 297.47 855.37 297.72 C 855.17 293.70 856.12 289.15 859.90 286.99 C 863.69 284.99 868.04 286.73 870.43 290.04 C 871.33 281.16 877.34 272.87 886.26 270.73 C 887.52 274.61 888.82 278.73 887.95 282.84 C 887.21 287.68 884.34 291.80 881.22 295.44 C 885.01 295.22 889.78 295.98 891.02 300.22 C 893.18 305.17 888.75 309.58 884.81 311.86 C 883.74 309.20 882.37 305.64 879.01 305.50 C 876.30 305.04 873.09 307.16 873.33 310.10 C 873.03 312.93 875.06 315.21 877.13 316.84 C 880.41 319.40 884.17 321.56 888.32 322.28 C 893.26 322.81 897.59 319.43 900.12 315.46 C 895.61 315.04 891.49 317.00 887.67 319.13 C 891.04 312.69 894.35 306.22 897.96 299.91 C 898.76 303.55 900.11 307.16 902.90 309.76 C 904.66 304.54 904.89 298.78 902.32 293.79 C 909.58 297.88 916.65 302.32 924.07 306.15 C 918.70 307.12 913.55 309.56 910.26 314.05 C 913.96 314.97 917.72 314.30 921.31 313.23 C 917.43 319.29 913.92 325.60 909.83 331.52 C 909.67 327.23 909.10 322.87 906.69 319.20 C 904.45 323.19 903.82 328.50 906.52 332.43 C 909.41 336.40 913.95 338.85 918.53 340.38 C 920.96 340.69 924.30 341.30 925.89 338.87 C 927.72 336.55 926.93 332.96 924.57 331.32 C 922.50 329.53 919.62 330.43 917.20 330.55 C 916.97 325.62 919.63 319.88 925.09 319.41 C 928.98 318.71 931.53 322.28 933.26 325.19 C 936.14 316.87 943.04 309.35 952.35 309.05 C 954.97 317.64 950.70 326.71 943.83 331.99 C 947.36 332.85 951.18 335.01 951.48 339.04 C 952.13 343.73 948.05 346.98 944.40 348.98 C 943.36 346.72 942.81 343.90 940.42 342.64 C 937.90 341.92 933.64 341.86 933.32 345.29 C 932.65 348.47 935.32 350.68 937.39 352.60 C 940.89 355.55 944.84 358.26 949.39 359.22 C 953.09 359.81 956.99 358.15 959.25 355.18 C 955.84 353.63 952.16 352.86 948.46 352.47 C 951.62 348.01 955.18 343.86 958.45 339.48 C 958.77 343.45 959.78 347.51 962.81 350.33 C 964.09 345.38 964.48 340.24 964.06 335.14 C 968.14 338.50 972.30 341.74 976.39 345.09 C 967.73 354.99 958.37 364.28 949.79 374.26 C 939.95 369.26 930.64 363.25 920.95 357.95 C 890.96 340.57 860.91 323.30 830.89 305.98 Z" />
<path fill="#000000" d=" M 798.44 286.82 C 803.08 286.08 808.32 285.82 812.45 288.51 C 817.06 291.22 819.92 296.67 819.44 302.02 C 818.65 313.54 807.59 323.43 796.01 322.69 C 788.55 323.12 781.07 316.68 781.27 309.03 C 780.29 298.64 788.77 289.34 798.44 286.82 Z" />
<path fill="#ffffff" d=" M 534.67 292.22 C 538.70 292.24 542.73 292.19 546.76 292.15 C 546.81 300.77 546.67 309.39 546.82 318.00 C 547.10 324.80 560.23 323.89 559.48 317.02 C 559.60 308.56 559.51 300.09 559.38 291.63 C 563.47 291.64 567.57 291.59 571.66 291.72 C 571.67 300.45 571.82 309.19 571.59 317.92 C 571.46 323.66 568.13 329.29 562.93 331.84 C 555.16 335.64 544.60 335.03 538.59 328.33 C 535.91 325.26 534.56 321.09 534.65 317.05 C 534.67 308.77 534.65 300.49 534.67 292.22 Z" />
<path fill="#ffffff" d=" M 576.18 335.46 C 578.63 321.32 581.44 307.23 584.51 293.21 C 588.28 294.07 592.08 294.83 595.87 295.61 C 593.79 309.74 590.49 323.67 588.00 337.74 C 584.02 337.17 580.11 336.27 576.18 335.46 Z" />
<path fill="#ffffff" d=" M 799.41 294.49 C 804.08 292.30 811.23 294.41 811.78 300.14 C 812.23 308.70 803.38 316.16 795.04 315.15 C 791.14 314.77 787.93 310.97 788.51 307.03 C 789.35 301.22 793.95 296.37 799.41 294.49 Z" />
<path fill="#ffffff" d=" M 483.92 313.56 C 486.54 300.36 502.55 291.84 514.96 297.03 C 523.43 300.47 529.19 309.80 528.13 318.94 C 527.76 322.30 526.27 325.37 524.87 328.40 C 527.88 328.56 530.89 328.55 533.91 328.45 C 532.18 332.11 530.50 335.80 528.71 339.44 C 521.48 341.26 514.18 339.67 506.99 338.67 C 498.46 339.42 489.84 334.65 486.02 326.98 C 484.10 322.84 482.90 318.10 483.92 313.56 Z" />
<path fill="#ffffff" d=" M 628.44 306.02 C 631.48 307.72 636.66 308.26 636.95 312.49 C 637.83 317.59 638.43 322.73 639.44 327.81 C 645.01 326.27 650.72 325.29 656.22 323.55 C 658.76 325.34 661.24 327.23 663.68 329.16 C 655.43 340.55 647.04 351.85 638.66 363.14 C 635.21 361.23 632.05 358.88 628.84 356.62 C 632.50 350.53 637.50 345.39 641.42 339.48 C 637.23 340.53 633.04 341.54 628.87 342.63 C 628.42 338.26 627.62 333.95 627.00 329.61 C 622.44 334.80 618.94 340.80 614.85 346.36 C 611.29 344.67 607.84 342.77 604.37 340.92 C 612.15 329.13 620.33 317.59 628.44 306.02 Z" />
<path fill="#000000" d=" M 503.46 307.65 C 510.62 305.07 518.24 312.86 515.77 319.87 C 513.68 327.42 501.33 329.77 497.49 322.52 C 494.15 317.03 496.96 309.06 503.46 307.65 Z" />
<path fill="#ffffff" d=" M 427.71 345.92 C 435.81 338.06 444.39 330.70 452.38 322.72 C 455.52 324.88 457.93 327.90 460.39 330.79 C 457.62 333.28 454.94 335.86 452.19 338.36 C 458.32 345.73 465.33 352.33 471.46 359.72 C 468.84 362.02 466.49 364.63 463.75 366.80 C 463.42 366.75 462.77 366.67 462.45 366.62 C 455.76 360.20 450.07 352.81 443.28 346.49 C 440.64 349.09 437.87 351.55 435.13 354.03 C 432.56 351.41 430.07 348.72 427.71 345.92 Z" />
<path fill="#ffffff" d=" M 768.51 332.59 C 770.77 331.84 773.34 332.35 775.15 333.92 C 781.91 339.79 780.70 352.48 772.68 356.65 C 768.55 358.91 764.07 355.00 762.61 351.25 C 759.90 344.88 761.61 335.52 768.51 332.59 Z" />
<path fill="#ffffff" d=" M 481.89 367.89 C 501.55 353.00 525.79 343.52 550.60 343.43 C 550.61 393.50 550.59 443.57 550.62 493.64 C 507.62 493.65 464.61 493.80 421.61 493.57 C 422.42 483.83 422.86 474.06 424.75 464.45 C 431.68 426.98 451.33 391.17 481.89 367.89 Z" />
<path fill="#ffffff" d=" M 558.43 343.39 C 593.96 344.90 627.11 364.54 648.77 392.23 C 663.93 411.13 674.11 433.70 679.65 457.22 C 682.41 469.16 684.14 481.41 683.82 493.69 C 642.01 493.66 600.20 493.68 558.39 493.68 C 558.43 443.58 558.37 393.49 558.43 343.39 Z" />
<path fill="#ffffff" d=" M 652.06 360.76 C 663.26 357.67 674.33 354.12 685.54 351.10 C 687.18 353.14 688.79 355.20 690.42 357.25 C 683.25 371.62 675.77 385.85 668.28 400.05 C 665.84 396.58 663.21 393.26 660.79 389.79 C 661.15 386.91 663.34 384.51 664.58 381.91 C 661.84 378.31 659.09 374.73 656.21 371.26 C 653.87 372.05 651.54 372.83 649.17 373.50 C 646.03 370.52 642.78 367.66 639.73 364.59 C 643.70 362.88 647.94 361.99 652.06 360.76 Z" />
<path fill="#000000" d=" M 565.19 352.18 C 567.17 352.76 569.08 353.55 570.91 354.50 C 572.33 353.42 573.76 351.44 575.81 352.16 C 578.59 352.78 578.77 356.59 581.47 357.35 C 605.61 364.91 626.52 381.27 641.39 401.55 C 643.74 400.44 646.33 400.15 648.92 400.32 C 648.00 402.65 646.70 404.79 645.19 406.77 C 658.01 425.70 666.77 447.49 669.97 470.15 C 671.97 472.20 674.88 473.79 674.73 477.08 C 673.56 478.08 672.37 479.06 671.16 480.00 C 671.70 481.85 672.19 483.71 672.60 485.61 C 670.69 485.22 668.82 484.74 666.97 484.18 C 666.24 485.42 665.47 486.64 664.67 487.83 C 661.53 488.34 659.17 486.63 657.90 483.86 C 645.07 483.92 632.24 483.80 619.40 483.93 C 618.80 485.94 618.25 488.06 616.86 489.71 C 614.17 489.16 614.86 485.16 612.74 483.97 C 601.80 483.72 590.85 483.97 579.91 483.85 C 578.49 485.24 577.34 487.62 575.06 487.53 C 572.90 487.80 572.01 485.51 571.01 484.08 C 569.14 484.53 567.24 484.84 565.35 485.15 C 565.67 483.18 566.24 481.27 566.92 479.40 C 565.65 478.81 564.40 478.19 563.19 477.54 C 562.59 474.51 564.45 472.20 566.93 470.75 C 566.94 453.85 567.09 436.95 566.86 420.05 C 564.65 419.39 562.58 418.37 560.75 416.99 C 562.62 415.75 564.65 414.72 566.85 414.20 C 567.10 398.54 566.94 382.88 566.94 367.21 C 565.53 365.95 563.41 364.90 563.28 362.78 C 562.72 360.65 564.87 359.46 566.09 358.13 C 565.61 356.17 565.31 354.18 565.19 352.18 Z" />
<path fill="#ffffff" d=" M 414.95 361.63 C 417.09 358.41 419.60 355.45 422.07 352.48 C 432.49 360.69 443.08 368.69 453.35 377.09 C 451.06 380.18 448.73 383.25 446.11 386.07 C 435.66 378.00 425.36 369.75 414.95 361.63 Z" />
<path fill="#000000" d=" M 536.76 356.86 C 539.18 356.09 541.76 356.26 544.28 356.13 C 537.41 358.48 533.43 365.06 526.95 367.97 C 523.56 369.74 518.23 368.48 517.06 373.15 C 524.93 379.36 537.02 373.43 544.60 380.37 C 546.31 382.22 546.29 385.66 544.14 387.19 C 540.64 389.95 535.98 390.23 531.74 390.80 C 535.61 391.71 539.60 392.21 543.27 393.84 C 543.88 398.54 541.73 402.93 542.34 407.63 C 540.26 406.42 537.99 405.90 535.67 406.64 C 534.57 404.42 533.14 402.38 531.07 400.98 C 533.06 399.70 535.33 399.29 537.68 399.41 C 537.64 398.05 537.62 396.68 537.59 395.33 C 535.78 395.33 533.82 395.17 532.45 396.57 C 530.51 398.38 527.73 397.14 525.43 397.11 C 526.43 399.07 527.32 401.08 527.90 403.22 C 525.65 403.79 523.09 403.68 521.25 405.29 C 520.05 406.28 518.35 405.53 516.95 405.77 C 516.77 406.39 516.40 407.61 516.22 408.22 C 514.53 407.25 512.82 406.33 511.05 405.55 C 511.09 404.18 511.17 402.82 511.32 401.47 C 510.74 401.12 509.60 400.43 509.03 400.08 C 510.48 399.32 511.87 398.15 513.61 398.23 C 515.38 399.36 516.68 401.53 519.05 401.33 C 517.68 399.37 516.31 397.38 515.47 395.13 C 512.95 395.26 510.43 395.29 507.92 395.48 C 507.83 396.31 507.66 397.97 507.57 398.80 C 504.37 400.77 501.02 402.60 497.13 401.62 C 496.29 402.63 495.47 403.66 494.64 404.68 C 492.32 404.44 490.01 404.80 488.39 406.62 C 484.34 403.40 478.85 406.72 474.35 404.51 C 473.76 405.78 473.21 407.06 472.68 408.35 C 471.00 405.05 469.59 401.41 465.86 399.94 C 467.32 399.27 468.81 398.63 470.34 398.09 C 470.72 396.98 471.11 395.87 471.51 394.77 C 474.02 395.47 475.62 397.44 476.92 399.58 C 482.02 397.31 487.63 397.91 492.88 396.27 C 492.70 395.40 492.53 394.52 492.37 393.65 C 489.39 391.33 484.23 392.59 482.89 388.44 C 484.46 388.70 486.02 389.05 487.59 389.37 C 486.86 387.84 486.31 386.24 485.97 384.59 C 484.76 384.62 483.56 384.65 482.36 384.69 C 484.04 382.35 484.97 379.70 484.79 376.80 C 486.21 377.64 487.56 378.60 488.86 379.62 C 489.65 378.55 490.02 376.25 491.76 377.44 C 493.11 380.21 490.12 383.01 490.97 385.78 C 491.96 386.72 493.13 387.46 494.27 388.24 C 495.04 382.33 496.93 376.73 499.70 371.48 C 501.98 371.54 504.29 371.09 506.55 371.52 C 509.76 372.41 510.85 375.84 512.97 378.03 C 511.85 380.92 510.70 383.80 509.23 386.53 C 513.90 385.67 518.74 385.41 523.33 386.87 C 529.08 388.83 535.64 388.78 541.17 386.15 C 543.39 385.26 543.27 381.74 540.91 381.13 C 533.24 378.08 524.37 380.90 516.92 377.05 C 514.43 375.84 513.37 372.35 515.14 370.15 C 516.98 367.77 518.32 364.74 521.20 363.40 C 523.90 362.02 526.61 360.64 529.10 358.88 C 528.77 360.37 528.41 361.85 528.09 363.34 C 530.79 360.97 533.27 358.10 536.76 356.86 Z" />
<path fill="#ffffff" d=" M 570.42 358.20 C 590.97 362.05 609.52 373.20 624.51 387.52 C 649.45 411.99 664.82 445.77 667.66 480.53 C 635.23 480.55 602.80 480.53 570.38 480.54 C 570.40 439.76 570.32 398.98 570.42 358.20 Z" />
<path fill="#000000" d=" M 571.80 360.34 C 588.82 363.55 604.32 372.45 617.52 383.42 C 645.23 407.23 662.23 442.41 665.74 478.59 C 634.46 478.57 603.18 478.63 571.90 478.56 C 571.63 439.16 571.81 399.75 571.80 360.34 Z" />
<path fill="#ffffff" d=" M 579.47 365.93 C 599.37 372.38 616.80 385.34 630.14 401.30 C 630.72 402.70 630.25 404.26 630.34 405.73 C 631.22 406.57 632.13 407.40 633.05 408.24 C 632.26 410.00 631.55 411.81 631.01 413.68 C 632.92 413.63 634.85 413.47 636.74 413.16 C 637.15 416.01 639.71 416.91 641.97 418.00 C 651.91 433.95 658.04 452.11 661.16 470.59 C 659.71 470.49 658.27 470.41 656.84 470.35 C 657.17 472.01 657.53 473.67 657.91 475.34 C 647.53 475.35 637.16 475.27 626.79 475.39 C 625.84 474.10 624.99 472.72 623.77 471.69 C 622.22 471.16 620.75 472.08 619.32 472.54 C 618.57 470.66 617.62 468.85 616.19 467.41 C 615.32 468.86 614.49 470.34 613.70 471.84 C 612.14 471.73 610.59 471.61 609.05 471.53 C 608.08 472.80 607.14 474.08 606.21 475.38 C 597.31 475.26 588.41 475.36 579.51 475.34 C 579.92 473.69 580.32 472.04 580.70 470.39 C 578.94 470.53 577.20 470.70 575.46 470.89 C 575.55 456.24 575.47 441.59 575.50 426.94 C 576.90 426.02 579.65 425.89 579.51 423.69 C 579.55 422.38 579.35 421.08 579.25 419.78 C 580.90 418.99 582.47 418.05 583.99 417.03 C 582.40 416.02 580.79 415.06 579.11 414.21 C 579.33 412.62 579.51 411.03 579.63 409.44 C 578.29 408.44 576.57 407.87 575.53 406.54 C 575.45 394.31 575.52 382.08 575.51 369.86 C 576.90 370.11 578.29 370.38 579.70 370.64 C 579.61 369.07 579.53 367.50 579.47 365.93 Z" />
<path fill="#000000" d=" M 667.17 368.08 C 668.76 367.67 670.35 367.29 671.96 366.94 C 671.31 368.41 670.64 369.87 669.99 371.34 C 669.03 370.26 668.09 369.17 667.17 368.08 Z" />
<path fill="#ffffff" d=" M 411.67 376.89 C 420.99 374.80 431.37 380.08 435.01 388.94 C 440.72 401.72 430.24 418.84 416.01 418.71 C 407.02 419.30 398.29 412.95 395.81 404.34 C 392.41 392.96 400.10 379.61 411.67 376.89 Z" />
<path fill="#ffffff" d=" M 502.89 379.47 C 503.38 379.32 504.36 379.01 504.85 378.85 C 503.99 380.68 503.23 382.56 503.11 384.61 C 502.51 384.68 501.31 384.80 500.70 384.87 C 501.49 383.09 502.46 381.38 502.89 379.47 Z" />
<path fill="#000000" d=" M 596.24 389.73 C 600.10 388.50 603.99 387.27 607.67 385.58 C 610.08 387.23 612.47 389.18 615.45 389.70 C 614.83 394.73 619.77 397.66 620.87 402.23 C 622.93 406.85 619.74 411.36 619.55 416.00 C 618.97 419.75 620.06 423.62 622.44 426.56 C 626.59 431.97 630.42 437.90 636.11 441.85 C 638.08 443.28 640.55 443.62 642.82 442.69 C 642.80 441.14 643.07 439.35 641.85 438.16 C 637.78 433.51 631.94 430.80 628.00 426.00 C 623.95 421.31 623.26 414.15 626.23 408.73 C 627.91 414.53 631.35 419.67 631.94 425.79 C 635.27 430.24 640.41 432.77 644.20 436.76 C 647.10 439.58 646.20 445.50 641.95 446.47 C 637.84 447.59 634.29 444.83 630.81 443.15 C 632.28 447.09 635.73 450.62 640.14 450.77 C 642.52 451.19 644.62 449.85 646.79 449.12 C 648.05 450.94 649.41 452.91 649.57 455.20 C 649.44 456.77 649.32 458.36 649.62 459.93 C 648.45 461.37 647.32 462.85 646.09 464.24 C 646.63 466.53 646.67 468.89 646.49 471.24 C 644.64 470.60 643.02 469.54 641.74 468.08 C 640.77 469.13 639.79 470.18 638.83 471.24 C 637.25 468.03 635.77 464.60 632.28 463.05 C 634.79 461.17 637.81 461.01 640.82 461.39 C 640.93 459.32 640.97 457.24 640.98 455.18 C 638.56 456.36 636.16 458.59 633.27 457.62 C 627.55 455.70 624.09 450.17 621.64 444.98 C 618.53 445.60 614.48 446.59 613.55 450.07 C 613.66 452.99 615.71 455.45 616.68 458.16 C 613.28 461.24 608.37 459.91 604.32 461.23 C 602.75 461.95 601.33 460.80 599.98 460.17 C 599.41 461.37 598.85 462.58 598.28 463.79 C 596.57 462.35 594.63 461.27 592.63 460.32 C 592.72 457.93 592.77 455.49 591.24 453.50 C 592.73 452.97 594.21 452.23 595.83 452.14 C 597.57 452.61 598.68 454.27 600.21 455.20 C 602.75 455.52 605.33 455.25 607.91 455.26 C 605.94 452.22 603.06 449.08 603.80 445.16 C 604.94 442.33 607.80 440.71 610.47 439.57 C 613.84 438.72 617.34 439.58 620.77 439.49 C 616.19 435.80 608.39 434.91 607.49 427.94 C 606.92 428.81 606.38 429.70 605.84 430.60 C 602.56 429.62 599.87 431.36 597.37 433.22 C 594.21 434.02 591.98 437.08 588.53 436.69 C 588.39 438.32 588.30 439.95 588.23 441.59 C 586.12 440.34 583.80 438.79 583.36 436.20 C 581.32 437.42 579.15 435.97 577.17 435.40 C 578.40 434.15 579.67 432.93 580.95 431.72 C 580.69 430.43 580.42 429.15 580.16 427.88 C 583.17 427.03 585.50 428.80 588.07 429.95 C 592.82 428.84 594.91 423.62 598.66 420.89 C 595.31 418.77 592.54 415.84 590.72 412.32 C 589.55 409.64 586.76 408.33 585.19 405.95 C 584.32 404.28 582.33 403.97 580.83 403.14 C 580.64 402.16 580.45 401.19 580.26 400.23 C 581.34 400.84 582.41 401.48 583.49 402.11 C 583.38 400.52 583.34 398.93 583.43 397.34 C 581.88 397.48 580.34 397.62 578.81 397.79 C 579.15 396.35 579.46 394.90 579.79 393.46 C 580.56 393.49 582.08 393.55 582.84 393.58 C 582.00 393.14 581.15 392.72 580.31 392.30 C 580.06 390.75 579.77 389.21 579.51 387.68 C 581.41 388.68 583.17 389.92 584.93 391.16 C 585.48 389.92 586.05 388.68 586.62 387.44 C 589.88 390.21 587.45 394.39 587.78 397.93 C 589.32 399.82 591.44 401.11 593.19 402.80 C 596.15 405.42 598.20 408.82 600.81 411.75 C 602.48 407.19 608.77 405.69 608.68 400.46 C 605.48 400.19 602.30 400.55 599.12 400.66 C 599.21 399.29 599.33 397.93 599.48 396.57 C 601.31 396.61 603.16 396.63 605.02 396.62 C 604.90 395.96 604.66 394.64 604.54 393.98 C 602.70 393.96 601.12 394.76 599.73 395.88 C 597.89 394.23 596.30 392.32 596.24 389.73 Z" />
<path fill="#000000" d=" M 413.43 388.48 C 416.05 387.93 418.96 388.27 421.14 389.92 C 426.65 393.56 425.83 403.16 419.97 406.07 C 416.18 408.11 411.10 406.93 408.41 403.61 C 403.95 398.80 407.34 390.07 413.43 388.48 Z" />
<path fill="#000000" d=" M 455.05 409.44 C 456.59 409.99 457.97 410.85 459.17 411.98 C 460.50 411.17 461.85 410.38 463.42 410.08 C 463.42 413.17 462.54 416.16 462.28 419.22 C 465.32 421.79 468.16 424.86 472.15 425.92 C 471.99 423.50 470.82 421.04 471.93 418.70 C 472.48 415.43 475.10 413.08 475.77 409.84 C 479.32 409.88 483.42 408.97 486.29 411.68 C 487.74 413.49 488.99 415.47 490.69 417.09 C 489.20 419.66 488.45 422.57 487.14 425.23 C 499.75 423.43 512.43 425.49 525.02 426.44 C 530.16 426.47 535.79 426.91 540.31 424.01 C 539.20 423.06 538.08 421.98 536.56 421.82 C 524.38 420.37 512.02 425.33 499.98 422.09 C 496.24 421.54 494.71 415.74 498.29 414.02 C 502.08 412.62 506.31 413.34 510.15 412.12 C 515.47 410.23 521.17 412.61 526.59 411.22 C 526.48 411.92 526.27 413.30 526.17 414.00 C 532.24 412.86 539.20 411.11 544.57 415.28 C 533.15 415.00 521.66 419.84 510.37 416.50 C 506.99 414.88 503.20 415.41 499.60 415.70 C 499.50 416.72 499.41 417.75 499.32 418.78 C 503.95 420.86 509.10 420.36 514.03 420.21 C 521.62 419.35 529.30 418.99 536.93 419.51 C 539.27 419.87 542.33 420.59 543.08 423.17 C 543.76 424.52 542.70 425.86 541.65 426.61 C 538.70 428.60 535.01 428.64 531.64 429.28 C 535.27 430.01 539.05 430.08 542.41 431.85 C 542.17 434.31 542.89 436.89 542.02 439.27 C 540.85 441.81 541.68 444.64 541.52 447.32 C 539.97 446.57 538.44 445.77 536.93 444.96 C 536.15 445.63 535.38 446.29 534.62 446.96 C 533.20 444.20 532.00 441.13 528.79 440.05 C 530.94 438.22 533.71 438.08 536.41 438.21 C 536.44 436.65 536.48 435.09 536.52 433.53 C 534.39 433.48 532.13 433.14 530.24 434.35 C 526.27 436.65 521.53 435.52 517.22 435.29 C 518.49 437.62 519.84 439.98 519.77 442.73 C 517.80 442.88 515.82 442.89 513.85 442.77 C 513.20 443.84 512.57 444.91 511.93 445.98 C 510.59 445.47 509.27 444.92 507.96 444.39 C 507.80 445.34 507.49 447.24 507.34 448.19 C 505.56 446.56 503.50 445.31 501.26 444.42 C 501.33 442.90 501.46 441.38 501.64 439.87 C 500.97 439.68 499.63 439.31 498.97 439.12 C 500.65 438.06 502.37 437.05 504.12 436.09 C 505.32 437.32 506.50 438.59 507.63 439.91 C 508.83 439.66 510.04 439.39 511.25 439.12 C 509.98 438.31 508.66 437.59 507.36 436.87 C 507.28 435.98 507.12 434.20 507.04 433.30 C 503.68 433.49 500.31 433.09 496.98 433.50 C 495.10 434.73 493.88 436.69 492.16 438.12 C 490.25 438.80 488.15 438.53 486.17 438.71 C 484.43 440.72 482.71 442.90 480.26 444.07 C 478.58 444.97 476.69 444.01 474.95 443.90 C 474.16 444.80 473.40 445.72 472.66 446.67 C 471.83 445.68 470.97 444.70 470.11 443.75 C 466.47 444.79 462.72 443.70 459.10 444.78 C 458.84 444.23 458.32 443.12 458.06 442.57 C 457.02 444.31 455.99 446.11 455.97 448.21 C 454.21 446.36 453.36 443.95 452.33 441.68 C 450.92 440.60 449.42 439.65 447.91 438.74 C 449.61 437.64 451.45 436.82 453.32 436.05 C 453.33 435.28 453.37 433.72 453.39 432.95 C 454.62 433.27 455.88 433.57 457.13 433.87 C 457.92 435.19 458.70 436.52 459.51 437.84 C 464.02 437.46 468.22 435.49 472.79 435.43 C 472.52 434.95 471.98 434.01 471.71 433.54 C 466.90 430.33 462.24 425.96 456.07 426.05 C 455.84 425.33 455.40 423.89 455.18 423.17 C 456.59 423.47 458.01 423.77 459.44 424.07 C 458.70 422.24 458.05 420.37 457.63 418.44 C 456.36 418.52 455.09 418.62 453.83 418.74 C 454.27 417.36 454.72 415.99 455.19 414.63 C 455.63 414.61 456.50 414.57 456.94 414.55 C 455.81 413.06 455.35 411.25 455.05 409.44 Z" />
<path fill="#000000" d=" M 776.31 412.32 C 788.92 409.46 803.72 418.05 805.91 431.16 C 807.26 437.94 803.30 445.05 797.17 448.04 C 792.83 450.43 787.70 449.86 782.95 449.61 C 775.61 448.24 768.80 443.55 765.20 436.96 C 762.76 432.75 762.85 427.63 763.63 422.99 C 765.46 417.41 770.64 413.42 776.31 412.32 Z" />
<path fill="#ffffff" d=" M 478.89 417.23 C 479.90 417.62 480.91 418.00 481.94 418.40 C 480.90 420.44 480.17 422.60 479.56 424.80 C 478.94 424.73 477.71 424.59 477.10 424.52 C 477.74 422.90 478.71 421.46 479.87 420.16 C 479.54 419.18 479.21 418.20 478.89 417.23 Z" />
<path fill="#ffffff" d=" M 775.46 420.45 C 784.30 416.67 795.62 422.40 798.41 431.49 C 799.63 435.52 797.22 439.88 793.36 441.36 C 785.28 444.80 775.31 440.07 771.41 432.54 C 768.98 428.27 770.77 422.24 775.46 420.45 Z" />
<path fill="#000000" d=" M 718.91 449.71 C 719.95 447.86 721.11 446.09 722.29 444.33 C 724.09 446.67 725.30 449.37 726.56 452.02 C 723.93 451.51 721.39 450.69 718.91 449.71 Z" />
<path fill="#000000" d=" M 446.78 447.71 C 450.68 449.89 448.36 454.53 448.49 458.01 C 452.00 460.52 454.63 464.75 459.46 464.54 C 458.99 459.10 462.20 454.55 464.01 449.70 C 467.36 449.89 471.13 448.72 474.04 450.98 C 476.04 452.66 477.15 455.13 478.94 457.02 C 477.66 459.93 476.61 462.96 475.09 465.77 C 488.76 463.13 502.75 464.90 516.51 465.73 C 523.88 466.26 531.94 467.65 538.79 464.10 C 538.01 461.11 534.34 461.74 531.98 461.36 C 519.26 461.26 506.50 464.42 493.80 462.35 C 491.06 461.74 486.65 460.72 487.15 457.04 C 486.93 455.02 489.00 453.88 490.68 453.49 C 495.91 451.97 501.40 452.99 506.75 452.63 C 514.28 449.79 522.33 452.15 530.06 452.59 C 534.26 452.73 539.23 451.04 542.65 454.31 C 532.89 453.77 523.71 458.40 513.95 457.63 C 511.02 457.75 508.44 456.33 505.74 455.51 C 500.71 455.20 495.66 455.17 490.64 455.59 C 490.45 456.23 490.05 457.50 489.85 458.14 C 494.56 460.35 499.93 460.17 505.02 460.14 C 513.02 459.64 521.05 459.41 529.05 458.81 C 533.23 459.11 538.00 458.91 541.44 461.70 C 541.71 462.95 541.75 464.23 541.83 465.51 C 537.95 468.12 533.24 468.47 528.77 469.22 C 533.03 469.69 537.42 469.56 541.34 471.57 C 540.94 474.80 542.33 478.64 539.60 481.16 C 540.44 482.97 540.42 484.98 540.48 486.95 C 538.52 486.72 537.17 485.42 535.97 484.02 C 535.11 484.99 534.25 485.94 533.39 486.91 C 532.09 484.05 530.97 480.83 527.63 479.85 C 529.78 477.96 532.48 477.43 535.28 477.82 C 535.31 476.34 535.35 474.87 535.38 473.40 C 533.04 473.28 530.57 472.98 528.49 474.32 C 524.67 476.46 520.17 475.36 516.03 475.21 C 517.28 477.44 518.58 479.69 518.85 482.29 C 516.82 482.65 514.77 482.72 512.73 482.57 C 512.02 483.68 511.32 484.80 510.59 485.90 C 509.42 485.36 508.29 484.78 507.16 484.21 C 506.58 485.33 506.02 486.45 505.44 487.58 C 503.95 486.15 502.17 485.16 500.29 484.39 C 500.51 482.03 500.36 479.69 499.04 477.66 C 500.39 477.11 501.76 476.57 503.14 476.05 C 504.27 477.29 505.38 478.55 506.48 479.83 C 507.77 479.50 509.06 479.16 510.36 478.82 C 508.97 478.10 507.56 477.44 506.15 476.78 C 505.91 475.64 505.70 474.51 505.51 473.37 C 502.15 473.46 498.76 473.11 495.42 473.62 C 492.33 474.40 490.27 477.13 487.37 478.31 C 484.95 478.80 482.47 478.45 480.03 478.62 C 477.04 480.07 474.06 481.54 471.18 483.20 C 467.56 485.84 462.33 482.50 459.19 486.35 C 458.47 485.42 457.73 484.49 457.02 483.58 C 455.04 483.45 453.08 483.73 451.50 485.01 C 450.99 484.31 450.48 483.61 449.97 482.91 C 448.99 483.54 448.01 484.18 447.04 484.83 C 446.03 484.30 445.03 483.77 444.04 483.25 C 443.32 484.74 442.63 486.24 442.00 487.77 C 440.89 485.77 439.89 483.69 439.35 481.46 C 437.73 480.62 436.17 479.68 434.55 478.86 C 436.54 476.66 440.44 476.59 440.65 473.02 C 441.42 473.18 442.96 473.51 443.74 473.68 C 444.60 475.01 445.14 476.68 446.50 477.62 C 449.16 477.70 451.56 476.36 454.09 475.77 C 456.30 475.39 458.55 475.48 460.78 475.38 C 460.52 474.60 459.99 473.03 459.73 472.25 C 458.31 471.96 456.89 471.78 455.50 471.41 C 453.20 469.77 451.62 467.15 448.82 466.27 C 446.36 464.85 442.44 465.96 441.62 462.44 C 442.72 462.53 444.91 462.71 446.01 462.80 C 445.18 461.03 444.36 459.25 444.29 457.28 C 442.88 457.41 441.48 457.53 440.08 457.65 C 441.32 454.64 441.89 451.50 441.33 448.27 C 442.97 449.24 444.57 450.30 446.19 451.32 C 446.34 450.42 446.63 448.61 446.78 447.71 Z" />
<path fill="#ffffff" d=" M 976.41 455.53 C 986.99 452.87 997.67 463.50 996.29 473.99 C 995.73 478.02 991.95 481.13 987.91 481.04 C 980.62 481.03 974.31 475.45 971.75 468.89 C 970.42 464.09 970.83 457.33 976.41 455.53 Z" />
<path fill="#ffffff" d=" M 469.35 458.58 C 470.92 457.76 472.57 457.12 474.27 456.61 C 472.74 458.64 470.72 460.13 468.19 460.63 C 468.27 461.99 468.34 463.36 468.40 464.73 C 467.29 464.65 466.18 464.57 465.07 464.50 C 465.95 462.97 466.95 461.51 468.00 460.10 C 467.56 459.06 467.12 458.04 466.67 457.03 C 467.55 457.55 468.45 458.06 469.35 458.58 Z" />
<path fill="#ffffff" d=" M 694.67 489.28 C 708.58 489.30 722.49 489.54 736.40 489.69 C 736.32 496.31 736.93 503.10 735.38 509.58 C 733.05 518.26 721.02 521.33 714.39 515.63 C 710.23 512.22 709.17 506.55 709.32 501.45 C 704.35 501.10 699.37 501.26 694.40 501.20 C 694.42 497.23 694.63 493.26 694.67 489.28 Z" />
<path fill="#000000" d=" M 721.09 501.64 C 722.26 501.66 723.44 501.69 724.63 501.71 C 724.57 503.24 724.51 504.77 724.45 506.31 C 723.46 506.29 722.47 506.30 721.50 506.32 C 721.33 504.75 721.19 503.19 721.09 501.64 Z" />
<path fill="#000000" d=" M 565.51 506.13 C 567.11 507.11 568.62 508.23 570.24 509.20 C 570.79 508.01 571.34 506.84 571.92 505.67 C 574.43 508.86 573.08 512.84 573.20 516.52 C 576.64 519.30 579.73 523.26 584.71 522.67 C 582.80 517.07 586.65 512.40 588.65 507.59 C 591.06 507.72 593.51 507.35 595.91 507.78 C 599.48 508.84 600.71 512.64 603.25 514.97 C 601.97 517.90 600.90 520.93 599.42 523.79 C 611.15 521.71 623.14 522.57 634.94 523.46 C 643.40 523.76 652.06 525.77 660.41 523.45 C 661.71 523.17 662.48 521.96 663.40 521.10 C 659.26 519.01 654.52 519.37 650.04 519.60 C 642.37 520.31 634.68 520.98 626.98 521.22 C 621.65 521.02 615.81 520.96 611.42 517.48 C 611.51 515.54 610.99 512.94 613.35 512.15 C 619.98 509.66 627.60 512.95 634.12 509.74 C 640.13 508.66 646.28 509.83 652.28 510.56 C 657.21 510.71 662.22 509.67 667.09 511.00 C 657.10 510.97 647.95 516.50 637.88 515.60 C 634.08 515.77 630.91 512.97 627.08 513.38 C 622.62 513.58 617.57 512.13 613.68 514.98 C 614.90 516.24 616.27 517.53 618.15 517.61 C 631.41 519.48 644.75 516.42 658.04 517.23 C 661.56 517.39 665.51 518.41 666.85 522.09 C 663.52 526.98 657.00 526.11 651.89 527.08 C 656.72 527.89 661.85 527.13 666.28 529.66 C 664.66 532.77 667.00 536.94 663.69 539.24 C 664.54 541.13 664.18 543.16 663.71 545.10 C 662.17 544.42 660.78 543.44 659.80 542.07 C 658.84 543.05 657.88 544.04 656.96 545.05 C 655.70 542.30 654.70 539.22 651.84 537.72 C 654.19 536.16 656.99 535.88 659.75 535.75 C 659.75 534.24 659.75 532.73 659.75 531.23 C 655.48 530.41 652.11 533.75 647.97 533.68 C 645.39 533.81 642.85 533.35 640.30 533.14 C 641.49 535.52 643.05 537.83 642.88 540.63 C 640.87 540.75 638.87 540.78 636.87 540.65 C 636.24 541.71 635.61 542.78 634.99 543.86 C 633.61 543.33 632.25 542.78 630.89 542.26 C 630.68 543.51 630.49 544.77 630.31 546.04 C 628.83 544.75 627.49 542.88 625.26 543.53 C 624.11 541.45 623.48 538.24 626.79 538.02 C 625.24 537.76 623.69 537.46 622.16 537.17 C 623.66 535.90 625.36 534.90 627.09 533.99 C 628.30 535.19 629.42 536.49 630.68 537.66 C 631.99 538.21 633.28 537.03 634.54 536.71 C 633.19 536.13 631.84 535.56 630.49 535.02 C 630.39 533.84 630.30 532.66 630.22 531.49 C 626.88 531.39 623.52 531.07 620.21 531.56 C 616.87 532.23 614.70 535.23 611.60 536.40 C 609.14 537.07 606.57 536.57 604.07 536.83 C 600.53 538.12 596.87 539.35 594.51 542.50 C 591.97 541.95 589.04 541.73 587.79 544.52 C 586.90 543.50 586.01 542.48 585.14 541.46 C 583.39 541.70 581.68 542.13 580.05 542.81 C 579.44 542.27 578.83 541.73 578.23 541.20 C 577.21 541.77 576.19 542.33 575.18 542.90 C 574.36 542.33 573.57 541.77 572.77 541.21 C 571.90 542.57 571.04 543.93 570.19 545.31 C 569.10 543.46 568.44 541.39 567.35 539.56 C 565.98 538.32 564.53 537.19 563.10 536.05 C 564.91 535.31 566.75 534.64 568.61 534.01 C 568.51 532.76 568.40 531.53 568.29 530.30 C 569.33 530.74 570.37 531.16 571.41 531.64 C 573.46 532.37 573.53 535.95 576.02 535.73 C 579.49 535.02 582.82 533.69 586.41 533.48 C 585.04 530.67 582.51 528.85 579.32 529.77 C 576.73 526.57 573.39 523.37 568.99 523.37 C 566.70 523.48 566.27 521.03 565.79 519.35 C 567.16 520.07 568.55 520.77 569.98 521.40 C 569.50 519.32 568.85 517.29 568.57 515.18 C 567.17 515.39 565.76 515.60 564.37 515.81 C 565.46 512.67 566.06 509.43 565.51 506.13 Z" />
<path fill="#000000" d=" M 513.28 510.88 C 518.52 508.96 525.23 508.22 529.70 512.26 C 533.62 515.37 534.55 520.66 534.39 525.39 C 537.22 525.91 541.50 527.10 540.66 530.90 C 540.78 534.48 536.56 534.79 533.93 534.74 C 533.59 558.54 532.62 582.31 532.41 606.11 C 535.18 608.97 534.43 612.82 533.43 616.29 C 531.91 616.74 530.38 617.19 528.86 617.62 C 528.69 620.21 528.71 623.00 527.28 625.28 C 524.45 630.04 518.27 631.87 513.04 631.02 C 507.64 630.15 503.70 623.53 506.55 618.58 C 508.53 615.24 512.90 614.57 516.36 615.67 C 516.94 616.79 517.42 617.95 517.79 619.17 C 515.87 619.76 513.95 620.35 512.00 620.84 C 511.53 623.75 514.20 625.42 516.88 624.78 C 522.19 624.57 522.96 616.53 519.03 613.90 C 515.61 611.23 511.19 612.91 507.33 612.67 C 488.01 606.82 470.94 593.92 459.93 577.02 C 451.10 563.44 445.25 547.36 446.28 530.98 C 446.71 528.95 445.40 527.39 444.07 526.08 C 444.38 524.81 444.70 523.53 445.02 522.27 C 442.27 522.64 438.78 522.37 437.52 519.45 C 435.39 515.96 438.91 510.74 442.98 511.55 C 445.43 511.81 446.74 514.07 447.94 515.95 C 448.60 514.36 449.26 512.78 449.93 511.21 C 458.93 515.78 468.67 519.98 478.99 519.45 C 490.91 519.10 502.19 514.88 513.28 510.88 Z" />
<path fill="#ffffff" d=" M 591.16 514.98 C 592.65 515.65 594.14 516.41 595.26 517.65 C 594.48 517.70 592.94 517.82 592.16 517.87 C 591.82 516.90 591.49 515.94 591.16 514.98 Z" />
<path fill="#ffffff" d=" M 516.64 517.83 C 518.85 516.95 521.26 517.03 523.58 517.31 C 524.39 519.65 524.53 522.12 524.22 524.58 C 521.53 525.03 516.81 525.19 517.27 529.06 C 516.59 532.45 520.18 533.42 522.75 533.93 C 522.21 540.61 520.51 547.15 520.11 553.86 C 517.87 551.71 516.28 549.02 514.52 546.51 C 509.53 539.34 504.44 532.24 499.55 525.00 C 505.25 522.62 510.82 519.91 516.64 517.83 Z" />
<path fill="#ffffff" d=" M 590.37 519.45 C 590.95 519.39 592.13 519.28 592.72 519.22 C 592.63 520.31 592.56 521.40 592.50 522.50 C 591.90 522.54 590.69 522.63 590.08 522.67 C 590.17 521.59 590.26 520.52 590.37 519.45 Z" />
<path fill="#ffffff" d=" M 693.31 520.74 C 707.08 522.87 720.69 525.99 734.50 527.88 C 733.13 536.34 731.28 544.73 730.01 553.22 C 729.74 553.47 729.19 553.98 728.92 554.23 C 725.39 553.70 721.92 552.89 718.42 552.25 C 719.31 547.48 720.34 542.74 720.95 537.93 C 720.13 537.76 718.50 537.43 717.68 537.26 C 716.85 541.89 716.02 546.52 715.09 551.13 C 711.40 550.51 707.74 549.80 704.07 549.20 C 704.51 544.55 705.31 539.93 706.53 535.42 C 705.28 535.07 704.03 534.74 702.79 534.41 C 701.78 539.38 700.87 544.38 699.99 549.38 C 696.33 548.65 692.63 548.19 689.00 547.35 C 689.64 538.37 691.97 529.63 693.31 520.74 Z" />
<path fill="#ffffff" d=" M 970.45 522.64 C 972.89 522.18 975.61 522.10 977.86 523.35 C 981.94 525.38 983.88 530.48 982.95 534.82 C 981.88 540.80 977.64 546.26 971.90 548.36 C 968.40 549.13 964.02 549.44 961.38 546.56 C 958.02 543.62 957.59 538.66 958.70 534.59 C 960.43 529.06 964.72 524.13 970.45 522.64 Z" />
<path fill="#000000" d=" M 416.78 536.77 C 420.16 533.80 422.20 529.75 424.09 525.75 C 429.14 560.93 445.98 594.64 472.02 618.97 C 473.44 620.55 475.69 619.41 477.47 619.28 C 485.17 617.16 493.57 620.44 499.03 625.98 C 504.83 631.48 507.86 639.64 507.25 647.60 C 543.77 663.70 581.46 677.84 620.72 685.54 C 632.22 687.78 643.94 689.00 655.65 688.20 C 643.50 699.51 629.33 708.68 614.09 715.24 C 603.92 719.47 593.13 722.86 582.00 722.74 C 562.45 722.31 543.16 718.39 524.33 713.33 C 506.86 708.62 489.90 702.05 473.76 693.88 C 468.92 696.50 463.63 699.02 457.97 698.43 C 447.42 697.56 438.82 689.23 435.06 679.72 C 433.77 676.71 434.01 673.40 433.91 670.21 C 403.42 643.58 381.60 607.71 369.71 569.16 C 367.51 561.26 365.07 553.36 364.06 545.20 C 369.83 546.90 376.08 548.68 382.03 546.77 C 386.01 545.63 388.75 542.37 392.06 540.11 C 392.61 541.96 393.12 543.83 393.57 545.72 C 401.95 545.21 410.61 542.72 416.78 536.77 Z" />
<path fill="#ffffff" d=" M 484.12 529.91 C 487.54 529.06 490.89 527.92 494.34 527.16 C 502.05 538.84 510.43 550.06 518.22 561.68 C 518.62 566.49 516.92 571.42 516.26 576.24 C 505.49 560.84 494.50 545.57 484.12 529.91 Z" />
<path fill="#ffffff" d=" M 466.96 531.54 C 470.52 531.55 474.08 531.29 477.65 531.34 C 478.74 531.84 479.20 533.07 479.95 533.95 C 491.36 550.54 503.02 566.96 514.42 583.54 C 515.39 588.07 513.44 592.73 513.02 597.28 C 508.32 591.43 504.29 585.08 499.96 578.95 C 488.94 563.17 477.92 547.38 466.96 531.54 Z" />
<path fill="#ffffff" d=" M 460.69 532.58 C 477.61 556.49 494.28 580.58 510.91 604.69 C 495.52 598.72 481.27 588.89 471.88 575.14 C 463.15 562.92 459.18 547.50 460.69 532.58 Z" />
<path fill="#000000" d=" M 587.92 546.57 C 590.45 546.61 593.03 546.12 595.53 546.69 C 598.82 547.66 599.66 551.35 602.14 553.34 C 600.96 555.78 600.03 558.33 599.03 560.85 C 609.71 560.03 620.39 560.91 631.01 562.01 C 637.23 562.91 643.63 562.59 649.68 560.85 C 649.68 560.24 649.69 559.01 649.69 558.40 C 637.92 555.82 625.60 562.12 614.00 557.90 C 610.82 556.94 610.01 551.49 613.47 550.45 C 616.70 548.72 620.53 550.23 623.85 548.84 C 626.36 547.84 629.07 547.36 631.76 547.91 C 640.17 549.27 648.72 548.17 657.15 549.07 C 647.25 549.72 638.03 555.09 627.94 553.97 C 625.42 553.85 623.25 552.51 620.95 551.64 C 618.72 551.35 616.51 551.88 614.37 552.42 C 614.31 553.08 614.21 554.39 614.16 555.04 C 625.06 559.06 636.78 554.53 648.01 555.46 C 650.18 555.71 653.22 556.46 653.47 559.09 C 653.89 561.13 651.83 562.38 650.21 562.98 C 646.81 564.13 643.17 564.22 639.72 565.15 C 644.22 565.85 649.08 564.79 653.12 567.43 C 652.24 570.07 652.25 573.07 650.50 575.36 C 649.04 577.28 649.33 579.89 648.46 582.07 C 647.30 581.35 646.17 580.59 645.08 579.81 C 644.04 580.46 643.01 581.13 642.01 581.84 C 641.27 579.30 640.42 576.77 638.88 574.60 C 641.15 573.47 643.65 573.24 646.17 573.34 C 646.36 571.75 646.54 570.17 646.66 568.58 C 642.55 568.37 639.10 571.10 635.06 571.32 C 632.46 571.62 629.92 570.82 627.38 570.42 C 628.53 572.71 629.89 574.97 629.96 577.62 C 628.02 577.77 626.08 577.87 624.14 577.90 C 623.60 578.87 623.07 579.84 622.54 580.83 C 621.33 580.53 620.13 580.24 618.95 579.95 C 618.37 580.67 617.81 581.39 617.25 582.12 C 615.91 581.08 614.39 580.39 612.70 580.24 C 612.48 578.70 612.42 577.15 612.58 575.61 C 612.00 575.21 610.84 574.42 610.26 574.02 C 611.72 573.22 613.17 572.37 614.78 571.90 C 616.30 572.44 617.18 573.93 618.32 575.01 C 619.59 574.81 620.86 574.62 622.14 574.43 C 620.87 573.72 619.56 573.08 618.25 572.48 C 617.93 571.20 617.65 569.92 617.41 568.64 C 614.45 568.77 611.47 568.19 608.55 568.73 C 606.36 569.84 605.52 572.81 602.94 573.18 C 599.27 573.82 596.21 576.08 593.90 578.91 C 590.74 578.10 587.39 578.34 585.13 580.95 C 584.11 580.18 583.09 579.40 582.08 578.65 C 580.05 579.18 577.78 580.20 575.94 578.64 C 574.96 579.08 573.99 579.52 573.02 579.96 C 572.34 579.41 571.68 578.87 571.02 578.34 C 570.09 579.64 569.14 580.93 568.22 582.24 C 566.67 578.84 565.11 575.24 561.22 573.99 C 562.95 572.93 564.82 572.12 566.69 571.33 C 566.65 570.47 566.57 568.75 566.53 567.90 C 569.50 568.67 571.03 571.33 573.22 573.08 C 576.89 572.83 580.25 570.82 584.04 571.23 C 584.02 570.03 583.99 568.85 583.94 567.67 C 581.39 566.95 578.98 565.66 576.28 565.59 C 573.57 564.93 570.13 565.14 568.57 562.41 C 569.67 562.41 571.89 562.43 572.99 562.43 C 572.18 560.76 571.44 559.03 571.34 557.15 C 570.00 557.35 568.66 557.56 567.34 557.77 C 567.61 556.41 567.90 555.06 568.22 553.72 C 568.74 553.66 569.79 553.55 570.32 553.50 C 568.62 552.43 568.44 550.41 568.16 548.61 C 569.55 549.25 570.90 550.01 572.21 550.84 C 573.29 550.13 574.37 549.42 575.50 548.77 C 575.91 551.90 575.58 555.06 575.42 558.21 C 577.63 560.27 580.48 561.05 583.45 560.93 C 582.95 555.65 586.21 551.28 587.92 546.57 Z" />
<path fill="#ffffff" d=" M 401.54 549.89 C 414.87 547.96 426.89 561.02 425.71 574.04 C 425.80 586.72 412.20 596.72 400.07 593.77 C 386.61 590.93 378.62 574.07 384.78 561.82 C 387.77 555.23 394.51 550.92 401.54 549.89 Z" />
<path fill="#ffffff" d=" M 687.64 550.94 C 691.54 551.75 695.11 553.58 698.79 555.06 C 707.87 558.73 716.92 562.50 726.08 566.00 C 725.50 568.87 724.64 571.71 723.26 574.31 C 714.72 578.16 705.51 580.41 696.82 583.95 C 703.31 586.47 709.76 589.08 716.18 591.78 C 714.75 595.37 713.22 598.92 711.89 602.55 C 698.84 597.63 686.02 592.13 673.11 586.87 C 674.17 584.03 675.33 581.23 676.47 578.43 C 685.02 575.06 693.91 572.63 702.39 569.08 C 696.10 566.42 689.61 564.25 683.45 561.30 C 684.94 557.88 686.27 554.40 687.64 550.94 Z" />
<path fill="#000000" d=" M 400.59 562.70 C 403.68 562.07 407.47 561.74 410.02 564.00 C 413.19 566.47 414.57 570.81 413.89 574.72 C 412.49 581.35 403.18 584.69 398.15 579.88 C 392.54 575.39 393.31 565.01 400.59 562.70 Z" />
<path fill="#ffffff" d=" M 937.36 575.32 C 942.28 573.96 947.95 577.02 949.17 582.07 C 951.76 591.84 942.50 603.50 932.12 601.63 C 928.00 601.04 925.18 596.95 924.77 593.01 C 923.99 585.16 929.79 577.27 937.36 575.32 Z" />
<path fill="#000000" d=" M 571.20 585.08 C 574.35 587.23 572.86 590.84 572.60 593.95 C 574.75 597.19 578.14 599.58 580.33 602.89 C 580.44 600.52 580.54 598.16 580.60 595.80 C 581.00 591.99 583.48 588.87 584.66 585.31 C 587.27 585.38 589.93 585.01 592.51 585.56 C 594.92 587.08 596.19 589.78 598.13 591.80 C 596.78 594.73 595.65 597.76 594.24 600.66 C 601.69 598.85 609.46 599.33 616.94 600.75 C 622.76 601.97 628.99 601.88 634.60 599.75 C 635.76 599.38 636.46 598.29 637.28 597.47 C 628.56 596.48 619.77 598.32 611.05 597.26 C 608.78 596.94 606.84 595.42 606.72 593.00 C 607.66 589.29 611.80 588.41 614.77 586.88 C 619.89 584.20 625.60 586.97 631.02 586.50 C 636.71 587.35 642.43 586.12 648.12 587.07 C 636.81 587.61 625.70 595.06 614.33 590.80 C 612.48 589.58 610.89 591.16 609.43 592.17 C 609.45 592.70 609.50 593.77 609.52 594.30 C 618.67 596.79 628.10 593.28 637.34 594.70 C 640.38 594.80 641.01 599.11 638.55 600.54 C 633.32 604.22 626.65 603.32 620.64 603.85 C 622.35 605.65 624.35 607.15 626.22 608.80 C 624.91 612.30 623.46 616.15 619.84 617.86 C 617.69 618.68 616.35 620.59 614.74 622.12 C 614.00 619.88 612.94 617.74 610.46 617.11 C 611.19 615.24 611.82 613.33 611.89 611.31 C 614.04 611.02 616.04 611.74 617.86 612.87 C 618.66 611.94 619.46 611.01 620.26 610.09 C 616.39 606.99 611.55 609.44 607.13 608.42 C 608.66 612.15 608.60 616.26 610.28 619.95 C 611.00 621.86 608.08 621.29 607.06 621.57 C 605.56 621.42 605.01 623.20 604.00 623.98 C 603.08 623.72 602.17 623.47 601.26 623.22 C 600.64 624.02 600.02 624.82 599.41 625.63 C 597.91 624.62 596.30 623.81 594.65 623.13 C 594.57 620.91 594.44 618.70 594.22 616.50 C 596.77 615.03 598.94 616.71 600.51 618.70 C 601.54 618.57 602.59 618.47 603.64 618.39 C 601.34 615.78 600.55 612.47 601.44 609.07 C 598.87 610.29 596.30 611.50 593.58 612.33 C 592.85 615.13 591.71 617.81 590.31 620.34 C 586.92 619.91 583.71 622.77 580.55 620.83 C 576.88 620.06 573.08 621.01 569.37 620.48 C 568.62 621.54 567.89 622.61 567.15 623.69 C 566.02 620.59 564.54 617.45 561.32 616.06 C 561.43 615.76 561.64 615.16 561.74 614.86 C 563.11 614.47 564.48 614.07 565.86 613.67 C 565.75 612.49 565.63 611.32 565.53 610.16 C 568.23 610.86 570.36 612.46 571.52 615.05 C 575.33 614.44 578.99 613.07 582.91 613.22 C 582.14 611.20 580.06 610.60 578.47 609.45 C 576.19 607.18 574.98 604.11 572.77 601.81 C 571.18 601.15 569.43 601.33 567.77 601.16 C 567.30 600.19 566.83 599.24 566.37 598.30 C 567.57 598.47 568.78 598.66 569.99 598.86 C 569.50 597.26 569.02 595.65 568.64 594.04 C 567.35 594.17 566.06 594.30 564.78 594.44 C 565.98 591.67 566.91 588.79 565.72 585.83 C 567.30 586.56 568.84 587.41 570.38 588.26 C 570.59 587.47 570.99 585.88 571.20 585.08 Z" />
<path fill="#ffffff" d=" M 397.82 610.02 C 409.25 602.11 420.57 594.04 431.96 586.06 C 434.24 589.36 436.70 592.54 438.85 595.94 C 434.75 598.83 430.50 601.56 426.65 604.79 C 429.00 608.12 431.32 611.46 433.72 614.76 C 437.78 611.80 441.90 608.91 446.04 606.06 C 448.36 609.35 450.77 612.59 452.89 616.02 C 441.45 623.83 430.25 631.96 418.85 639.82 C 416.49 636.58 414.17 633.33 411.91 630.04 C 416.00 627.09 420.30 624.42 424.13 621.13 C 421.83 617.80 419.49 614.50 417.12 611.23 C 413.01 614.09 408.95 617.01 404.82 619.85 C 402.42 616.62 400.10 613.33 397.82 610.02 Z" />
<path fill="#ffffff" d=" M 587.42 592.37 C 588.51 591.87 590.68 592.51 590.68 593.93 C 589.75 595.95 586.31 594.37 587.42 592.37 Z" />
<path fill="#ffffff" d=" M 660.69 606.96 C 661.67 600.05 667.85 595.13 674.09 592.94 C 678.39 594.52 681.73 598.02 685.79 600.17 C 680.61 601.90 673.74 603.50 671.88 609.37 C 677.65 609.14 682.22 604.69 687.99 604.39 C 694.79 603.78 701.42 610.14 700.91 617.00 C 700.85 624.07 694.81 630.43 688.17 631.93 C 684.29 629.85 680.88 627.00 677.16 624.66 C 681.68 622.60 687.73 621.59 689.76 616.39 C 684.25 617.25 679.72 621.52 673.99 621.48 C 666.49 621.78 659.57 614.49 660.69 606.96 Z" />
<path fill="#ffffff" d=" M 585.88 598.74 C 586.12 597.11 586.73 595.67 588.34 594.98 C 588.42 596.12 588.50 597.27 588.58 598.43 C 587.90 598.50 586.55 598.66 585.88 598.74 Z" />
<path fill="#ffffff" d=" M 633.79 633.95 C 640.17 627.65 646.54 621.35 652.98 615.10 C 663.03 624.70 672.76 634.62 682.78 644.25 C 676.55 650.57 670.30 656.85 664.07 663.17 C 661.35 660.48 658.63 657.80 655.89 655.14 C 659.26 651.61 662.98 648.41 666.06 644.61 C 665.48 644.03 664.32 642.88 663.74 642.30 C 660.37 645.55 657.04 648.84 653.91 652.32 C 650.85 649.95 648.15 647.14 645.67 644.17 C 648.82 641.13 651.91 638.02 654.98 634.89 C 654.81 634.34 654.46 633.25 654.29 632.70 C 653.76 632.53 652.69 632.19 652.15 632.02 C 648.79 635.34 645.35 638.59 642.00 641.92 C 639.24 639.28 636.46 636.66 633.79 633.95 Z" />
<path fill="#ffffff" d=" M 454.75 640.95 C 461.68 633.98 469.25 626.54 479.21 624.44 C 489.99 622.45 499.46 631.74 501.68 641.70 C 496.23 638.65 491.85 632.60 485.07 632.82 C 477.35 634.05 473.23 641.52 468.28 646.73 C 471.61 649.53 475.31 652.54 476.30 657.02 C 477.01 659.97 474.99 663.55 471.77 663.68 C 467.10 664.26 462.96 661.59 459.05 659.46 C 455.68 664.80 451.13 670.22 451.30 676.89 C 451.18 679.75 453.29 682.01 455.53 683.49 C 459.48 686.05 463.69 688.22 467.48 691.04 C 464.77 692.01 462.03 693.24 459.11 693.27 C 450.99 692.39 444.15 686.40 440.84 679.13 C 438.00 673.39 440.35 666.87 442.33 661.25 C 443.89 656.63 446.89 652.66 448.77 648.22 C 447.29 645.28 445.53 642.47 444.32 639.40 C 447.82 639.76 451.24 640.65 454.75 640.95 Z" />
<path fill="#000000" d=" M 1072.35 636.22 C 1080.58 634.04 1090.03 634.80 1097.10 639.88 C 1107.56 646.76 1112.06 661.05 1107.84 672.77 C 1104.81 681.85 1096.86 689.03 1087.57 691.26 C 1080.32 692.43 1072.44 692.01 1066.15 687.88 C 1054.78 681.27 1049.33 666.30 1053.89 653.94 C 1056.80 645.56 1063.86 638.79 1072.35 636.22 Z" />
<path fill="#000000" d=" M 918.47 638.66 C 924.29 636.16 931.38 637.66 935.87 642.08 C 945.17 651.41 945.07 668.41 935.49 677.50 C 930.34 682.55 921.64 683.38 915.62 679.45 C 901.82 670.27 903.04 645.51 918.47 638.66 Z" />
<path fill="#ffffff" d=" M 1077.43 642.64 C 1086.61 640.97 1096.37 646.35 1100.09 654.86 C 1102.16 658.80 1101.88 663.43 1101.49 667.73 C 1100.07 674.46 1095.12 680.29 1088.71 682.79 C 1081.09 686.06 1071.67 683.96 1065.96 678.03 C 1062.45 674.61 1060.48 669.86 1059.93 665.04 C 1058.98 654.56 1067.06 644.33 1077.43 642.64 Z" />
<path fill="#ffffff" d=" M 921.48 645.57 C 924.77 644.36 928.66 645.33 931.02 647.95 C 936.98 654.61 936.71 665.91 930.12 672.06 C 927.64 674.49 923.52 675.57 920.49 673.54 C 910.79 667.65 911.24 650.63 921.48 645.57 Z" />
<path fill="#ffffff" d=" M 510.49 669.65 C 517.08 666.51 525.54 671.03 527.05 678.05 C 528.98 685.27 522.65 693.56 515.02 692.76 C 508.32 693.26 502.35 686.64 503.22 680.04 C 503.00 675.44 506.52 671.47 510.49 669.65 Z" />
<path fill="#ffffff" d=" M 1035.40 684.52 C 1039.31 683.43 1043.95 684.13 1046.90 687.09 C 1049.18 689.33 1048.87 692.83 1048.49 695.74 C 1046.17 703.61 1037.64 709.19 1029.51 708.29 C 1025.00 707.75 1021.23 703.61 1021.62 698.99 C 1022.42 691.81 1028.62 686.23 1035.40 684.52 Z" />
<path fill="#000000" d=" M 952.38 686.59 C 962.95 683.30 976.01 687.59 981.46 697.50 C 985.10 703.75 983.72 712.43 978.09 717.06 C 968.75 725.34 953.38 723.79 944.59 715.44 C 941.07 711.92 938.64 707.05 939.16 701.98 C 939.06 694.44 945.56 688.56 952.38 686.59 Z" />
<path fill="#ffffff" d=" M 567.48 687.56 C 574.74 686.12 581.89 693.54 580.09 700.75 C 578.78 707.44 570.66 711.99 564.48 708.50 C 558.75 706.14 556.60 698.66 559.39 693.35 C 560.95 690.25 564.12 688.19 567.48 687.56 Z" />
<path fill="#ffffff" d=" M 955.37 693.56 C 959.83 693.00 964.70 692.91 968.70 695.30 C 973.07 697.57 976.97 702.37 975.52 707.57 C 974.22 711.24 970.52 713.85 966.76 714.51 C 962.30 714.96 957.48 715.04 953.51 712.64 C 949.66 710.60 946.31 706.57 946.62 702.01 C 947.08 697.53 951.31 694.59 955.37 693.56 Z" />
<path fill="#000000" d=" M 353.54 696.71 C 362.79 694.02 372.50 693.97 382.03 694.66 C 396.60 696.34 410.73 703.57 419.52 715.48 C 422.98 719.95 425.63 725.01 427.69 730.27 C 432.62 742.36 439.54 753.48 446.49 764.49 C 449.95 770.29 453.64 776.74 452.64 783.76 C 451.60 791.75 445.22 797.54 439.17 802.17 C 431.37 807.79 422.60 811.81 414.08 816.18 C 409.22 818.70 403.88 822.15 402.91 828.01 C 401.79 830.08 404.23 830.71 405.63 831.42 C 424.78 839.74 445.22 844.55 465.71 848.20 C 506.67 855.36 548.51 856.85 589.96 854.22 C 619.34 852.16 648.69 847.91 677.04 839.78 C 685.68 837.22 694.21 834.18 702.40 830.38 C 704.11 825.97 700.25 821.59 696.80 819.21 C 689.42 814.31 681.00 811.27 673.48 806.59 C 666.05 802.05 658.34 796.71 654.53 788.60 C 651.41 781.12 654.00 772.76 658.26 766.30 C 663.42 758.01 668.87 749.87 673.10 741.06 C 677.25 733.43 679.68 724.93 684.75 717.81 C 691.98 706.71 703.79 698.95 716.63 695.98 C 724.57 693.90 732.87 694.14 741.01 694.53 C 759.07 696.73 775.67 704.89 791.51 713.40 C 831.26 735.63 866.97 764.46 907.42 785.52 C 925.74 794.62 945.25 802.77 965.99 803.34 C 972.71 803.47 979.34 802.13 985.94 801.06 C 968.66 808.13 955.00 821.30 940.01 832.02 C 930.70 838.79 919.98 845.35 908.00 844.55 C 887.59 843.87 868.95 834.25 851.62 824.28 C 833.00 813.22 815.44 800.51 797.42 788.54 C 778.68 776.14 759.36 764.10 737.92 756.93 C 728.22 753.82 718.01 751.66 707.77 752.47 C 716.28 763.40 729.02 769.64 738.62 779.40 C 744.53 785.24 746.03 794.26 743.84 802.07 C 740.90 810.89 734.47 817.87 729.85 825.80 C 723.38 836.24 719.94 848.15 717.20 860.03 C 714.85 868.61 713.47 877.81 708.18 885.22 C 701.55 894.56 691.26 900.37 680.92 904.76 C 658.75 913.97 634.66 917.07 610.95 919.39 C 583.04 921.73 555.00 921.99 527.01 921.27 C 509.45 920.56 491.88 919.47 474.46 917.09 C 454.96 914.35 435.27 910.31 417.59 901.33 C 406.72 895.93 396.62 887.32 392.70 875.49 C 388.35 861.91 386.83 847.44 380.68 834.45 C 376.29 824.62 369.11 816.43 364.10 806.97 C 359.37 798.28 360.15 786.49 367.36 779.38 C 376.85 769.59 389.61 763.43 398.02 752.49 C 380.56 751.36 363.72 757.70 348.22 765.08 C 311.31 783.13 280.19 810.73 244.00 830.02 C 227.86 838.62 209.90 845.95 191.24 844.35 C 179.63 842.38 169.91 835.18 160.76 828.22 C 147.70 818.50 135.31 807.35 120.05 801.13 C 128.49 802.54 137.06 804.16 145.63 802.96 C 166.12 801.13 185.14 792.38 203.18 783.04 C 237.85 764.29 269.29 740.32 303.00 719.98 C 319.01 710.62 335.51 701.53 353.54 696.71 Z" />
<path fill="#ffffff" d=" M 719.14 744.34 C 724.24 729.58 729.39 714.83 734.66 700.13 C 741.82 702.14 749.24 703.35 756.25 705.89 C 764.23 708.92 770.47 717.07 769.47 725.84 C 768.48 733.44 764.52 740.78 758.39 745.48 C 752.98 749.38 745.91 750.07 739.48 749.07 C 732.62 747.84 725.92 745.92 719.14 744.34 Z" />
<path fill="#ffffff" d=" M 337.77 710.14 C 341.96 708.84 346.03 707.18 350.28 706.06 C 353.77 714.42 357.34 722.73 360.90 731.05 C 362.75 735.63 364.35 740.87 362.46 745.71 C 360.27 751.78 354.41 755.55 348.67 757.82 C 343.92 759.72 338.37 760.66 333.55 758.48 C 328.58 756.36 325.28 751.67 323.16 746.87 C 319.61 738.95 315.95 731.07 312.61 723.05 C 316.42 721.02 320.19 718.88 324.10 717.04 C 327.81 725.30 331.36 733.64 335.06 741.91 C 336.39 744.61 338.46 748.16 342.02 747.55 C 345.32 746.91 348.78 745.15 350.38 742.03 C 350.37 738.10 348.08 734.68 346.72 731.11 C 343.85 724.07 340.26 717.32 337.77 710.14 Z" />
<path fill="#000000" d=" M 743.12 715.04 C 748.21 715.79 754.65 717.50 756.34 723.07 C 757.00 729.24 752.80 736.75 746.06 737.18 C 742.56 737.44 739.15 736.46 735.76 735.81 C 737.85 728.77 740.48 721.89 743.12 715.04 Z" />
<path fill="#ffffff" d=" M 762.10 758.50 C 769.50 745.02 777.50 731.89 784.97 718.46 C 790.07 721.13 795.02 724.10 799.98 727.04 C 803.64 729.21 807.04 732.27 808.50 736.39 C 810.18 741.12 808.32 746.48 804.98 750.01 C 802.78 752.36 799.47 752.92 796.50 753.66 C 797.62 762.42 798.26 771.24 798.79 780.06 C 794.32 777.24 789.90 774.33 785.40 771.56 C 783.86 764.44 785.04 756.96 782.61 749.99 C 778.52 753.93 776.59 759.52 773.43 764.17 C 769.45 762.71 765.84 760.46 762.10 758.50 Z" />
<path fill="#000000" d=" M 527.78 725.94 C 544.38 729.84 561.21 733.31 578.31 733.72 C 578.37 744.74 578.36 755.76 578.31 766.78 C 583.83 766.38 589.78 766.13 594.58 769.38 C 600.49 773.03 604.11 780.09 603.78 787.02 C 603.63 793.82 600.44 800.15 596.52 805.56 C 595.65 806.49 595.01 808.29 593.43 807.64 C 591.51 804.17 590.27 799.63 585.95 798.46 C 581.74 803.83 581.96 811.11 579.39 817.23 C 577.54 823.26 572.96 828.97 566.28 829.58 C 567.16 834.08 566.94 839.17 563.83 842.83 C 558.29 850.22 545.24 849.38 540.93 841.12 C 538.63 837.73 539.34 833.47 539.50 829.64 C 534.20 828.87 529.80 825.18 527.68 820.34 C 524.15 813.76 524.17 805.87 520.57 799.38 C 517.70 797.73 515.55 801.24 514.50 803.46 C 513.38 804.85 513.40 807.69 511.26 807.85 C 506.11 801.80 501.75 794.19 502.25 785.98 C 501.82 777.87 507.60 770.02 515.26 767.54 C 519.26 765.99 523.62 766.69 527.80 766.82 C 527.73 753.19 527.76 739.57 527.78 725.94 Z" />
<path fill="#ffffff" d=" M 273.04 748.21 C 281.40 742.70 289.73 737.15 298.19 731.78 C 300.49 735.06 302.54 738.50 304.65 741.90 C 299.85 745.19 294.95 748.34 290.12 751.58 C 290.83 752.86 291.02 754.94 292.88 754.99 C 297.73 752.53 301.92 748.97 306.58 746.19 C 308.74 749.48 310.73 752.88 312.87 756.19 C 308.34 759.67 303.40 762.57 298.81 765.97 C 299.64 767.33 300.48 768.69 301.32 770.06 C 306.65 767.07 311.51 763.37 316.68 760.15 C 318.82 763.49 320.95 766.84 323.03 770.23 C 314.31 775.78 305.96 782.02 296.85 786.90 C 289.21 773.82 280.68 761.29 273.04 748.21 Z" />
<path fill="#000000" d=" M 790.45 735.06 C 792.25 736.06 794.21 736.92 795.62 738.48 C 796.03 739.78 795.57 741.14 795.48 742.46 C 792.46 743.27 789.83 741.66 787.37 740.16 C 788.38 738.44 789.41 736.75 790.45 735.06 Z" />
<path fill="#ffffff" d=" M 540.42 757.40 C 543.87 752.67 548.52 749.04 553.01 745.36 C 559.44 750.90 566.89 756.51 569.29 765.07 C 570.81 770.42 567.57 775.38 564.23 779.24 C 561.97 782.20 558.69 785.02 558.52 788.99 C 558.22 793.68 565.78 796.26 568.07 791.96 C 571.17 786.39 571.54 779.06 576.96 774.96 C 583.35 770.09 593.51 773.42 596.32 780.80 C 598.98 786.31 596.66 792.44 594.24 797.58 C 592.08 795.17 589.69 791.99 586.08 792.19 C 583.70 792.00 581.78 793.75 580.60 795.62 C 576.20 803.06 576.74 812.53 571.66 819.64 C 567.89 825.55 556.03 823.38 556.13 815.77 C 555.47 812.15 558.60 809.42 558.72 805.96 C 559.33 800.34 550.81 799.74 547.88 802.93 C 544.58 807.72 551.71 811.88 549.94 816.81 C 548.45 823.85 537.29 825.31 533.89 819.11 C 529.50 812.17 529.47 803.51 525.65 796.33 C 524.53 794.17 522.55 792.05 519.92 792.20 C 516.24 791.94 513.89 795.24 511.77 797.71 C 509.06 792.33 506.71 785.63 510.02 779.98 C 513.23 773.11 522.87 770.33 529.03 774.97 C 534.53 779.08 534.74 786.51 537.95 792.07 C 540.53 796.56 548.57 793.12 547.23 788.07 C 545.37 781.10 537.61 777.21 536.49 769.87 C 535.87 765.35 537.75 760.94 540.42 757.40 Z" />
<path fill="#ffffff" d=" M 819.49 750.76 C 833.27 745.72 850.43 755.46 852.68 770.07 C 854.40 780.46 847.70 791.28 837.93 794.92 C 824.64 800.19 807.60 791.94 803.99 777.99 C 801.02 766.73 808.62 754.31 819.49 750.76 Z" />
<path fill="#ffffff" d=" M 373.43 784.43 C 383.18 771.80 398.83 765.65 409.16 753.58 C 420.13 755.74 431.31 758.84 440.40 765.61 C 444.69 768.77 447.80 773.59 448.21 778.99 C 447.87 783.65 444.40 787.20 440.74 789.72 C 429.44 797.49 416.14 801.88 405.15 810.16 C 399.88 814.09 395.65 820.14 396.39 827.02 C 387.14 821.98 377.77 816.02 372.15 806.83 C 367.84 800.06 368.23 790.63 373.43 784.43 Z" />
<path fill="#ffffff" d=" M 667.85 763.88 C 676.55 758.27 686.71 755.50 696.77 753.49 C 706.14 764.60 719.86 770.72 729.80 781.23 C 733.45 785.31 736.80 790.29 736.74 795.99 C 736.94 801.53 734.24 806.68 730.87 810.89 C 725.14 817.86 717.41 822.77 709.53 826.98 C 710.07 820.73 706.75 814.85 701.93 811.09 C 690.43 801.88 675.95 797.55 664.08 788.92 C 660.72 786.33 657.24 782.63 657.79 778.04 C 658.30 771.88 662.95 767.13 667.85 763.88 Z" />
<path fill="#ffffff" d=" M 247.07 765.37 C 250.54 763.04 253.95 760.60 257.65 758.66 C 265.66 771.59 273.76 784.45 281.81 797.35 C 278.39 799.67 274.97 802.03 271.32 803.99 C 263.15 791.17 254.96 778.36 247.07 765.37 Z" />
<path fill="#000000" d=" M 823.45 762.65 C 830.36 759.82 840.28 764.98 839.78 773.00 C 840.50 779.39 834.13 784.86 827.99 784.46 C 823.42 784.05 818.89 781.32 817.02 777.03 C 814.83 771.54 817.99 764.75 823.45 762.65 Z" />
<path fill="#ffffff" d=" M 867.12 770.78 C 870.88 772.77 874.48 775.05 878.13 777.25 C 870.46 790.65 861.98 803.56 854.17 816.88 C 850.36 814.76 846.70 812.38 843.02 810.04 C 850.98 796.91 859.13 783.90 867.12 770.78 Z" />
<path fill="#ffffff" d=" M 877.11 791.48 C 878.81 787.88 880.76 784.39 882.81 780.98 C 894.90 787.94 907.38 794.22 919.92 800.35 C 918.15 803.90 916.26 807.39 914.14 810.74 C 909.38 808.70 904.76 806.37 900.00 804.33 C 894.39 813.53 888.59 822.61 882.77 831.68 C 878.88 830.00 874.92 828.45 871.20 826.42 C 877.22 817.15 883.06 807.77 888.97 798.43 C 884.99 796.14 881.02 793.86 877.11 791.48 Z" />
<path fill="#ffffff" d=" M 217.33 784.14 C 224.95 780.68 234.44 781.62 241.00 786.92 C 246.86 791.32 250.40 798.69 249.85 806.04 C 250.31 813.63 244.67 819.93 238.62 823.71 C 233.23 826.87 227.68 829.74 222.17 832.66 C 214.57 819.65 206.67 806.83 199.05 793.84 C 205.08 790.50 211.06 787.00 217.33 784.14 Z" />
<path fill="#000000" d=" M 216.25 798.18 C 220.56 796.07 225.35 793.09 230.32 794.70 C 234.80 796.60 238.02 801.75 237.23 806.63 C 236.07 811.65 231.17 814.12 227.00 816.29 C 223.36 810.28 219.60 804.34 216.25 798.18 Z" />
<path fill="#ffffff" d=" M 549.51 827.48 C 555.33 823.61 563.24 831.65 559.60 837.47 C 557.51 842.63 549.37 843.12 546.68 838.28 C 544.04 834.72 545.72 829.43 549.51 827.48 Z" />
<path fill="#ffffff" d=" M 424.23 848.26 C 434.37 851.15 444.58 853.78 454.89 855.99 C 455.17 860.12 455.29 864.26 455.16 868.41 C 449.33 867.27 443.52 866.01 437.79 864.47 C 437.78 865.98 437.79 867.50 437.80 869.03 C 443.27 870.31 448.69 871.79 454.15 873.12 C 454.39 877.33 454.47 881.56 454.64 885.78 C 449.31 884.55 444.06 882.95 438.67 882.03 C 438.69 883.71 438.72 885.40 438.74 887.10 C 444.34 888.92 450.08 890.32 455.84 891.57 C 456.45 895.79 456.44 900.07 456.60 904.34 C 446.32 902.28 436.21 899.29 426.48 895.39 C 425.58 887.94 425.47 880.45 425.30 872.97 C 424.29 864.78 424.42 856.50 424.23 848.26 Z" />
<path fill="#ffffff" d=" M 668.68 851.95 C 673.01 850.77 677.33 849.56 681.67 848.41 C 680.81 864.19 679.88 879.97 678.74 895.73 C 675.37 896.52 672.00 898.98 668.56 898.46 C 661.89 892.41 656.05 885.51 649.40 879.46 C 648.08 884.88 648.79 890.51 648.19 896.02 C 647.78 898.92 647.63 901.86 647.60 904.80 C 643.25 905.59 638.94 906.66 634.53 907.08 C 635.80 890.88 636.40 874.65 637.49 858.44 C 640.61 857.74 643.78 857.32 646.94 856.84 C 653.70 863.63 660.44 870.45 667.35 877.10 C 667.51 868.69 668.61 860.36 668.68 851.95 Z" />
<path fill="#ffffff" d=" M 459.34 856.68 C 472.72 859.01 486.21 860.58 499.65 862.47 C 499.63 866.60 499.65 870.72 499.63 874.85 C 495.15 874.48 490.72 873.73 486.26 873.25 C 485.29 885.12 486.09 897.08 485.81 908.99 C 481.44 908.42 477.08 907.76 472.72 907.15 C 472.67 895.20 472.72 883.25 472.69 871.30 C 468.24 870.55 463.78 869.83 459.33 869.10 C 459.32 864.95 459.31 860.81 459.34 856.68 Z" />
<path fill="#ffffff" d=" M 599.52 862.65 C 605.53 862.06 611.98 861.74 617.50 864.63 C 625.49 868.43 631.47 876.95 630.71 886.00 C 631.15 893.02 627.65 899.88 622.38 904.37 C 615.58 910.06 606.04 912.52 597.39 910.40 C 590.48 908.84 584.30 904.12 581.14 897.76 C 577.75 890.87 578.11 882.44 581.75 875.72 C 585.40 869.06 592.10 864.21 599.52 862.65 Z" />
<path fill="#ffffff" d=" M 525.79 864.36 C 529.49 864.27 533.19 864.37 536.89 864.61 C 541.29 870.09 545.77 875.50 550.31 880.87 C 555.04 875.60 559.10 869.76 563.80 864.46 C 567.40 864.53 571.00 864.55 574.60 864.37 C 574.72 880.32 574.68 896.29 574.62 912.25 C 570.24 912.44 565.86 912.34 561.48 912.34 C 561.34 903.85 561.57 895.36 561.34 886.88 C 557.58 891.17 554.06 895.66 550.22 899.88 C 546.35 895.59 542.99 890.83 538.77 886.87 C 538.64 895.37 538.84 903.88 538.65 912.38 C 534.36 912.38 530.06 912.23 525.80 911.74 C 525.77 895.94 525.80 880.15 525.79 864.36 Z" />
<path fill="#000000" d=" M 601.47 875.66 C 606.35 874.66 612.25 875.30 615.22 879.80 C 620.01 886.07 615.76 896.07 608.23 897.68 C 602.51 899.77 595.07 896.88 593.10 890.92 C 590.85 884.62 594.88 877.06 601.47 875.66 Z" />
</svg>
