<?xml version="1.0" encoding="UTF-8" standalone="no"?>
<svg width="587px" height="80px" viewBox="0 0 587 80" version="1.1" xmlns="http://www.w3.org/2000/svg" xmlns:xlink="http://www.w3.org/1999/xlink">
    <!-- Generator: Sketch 45.2 (43514) - http://www.bohemiancoding.com/sketch -->
    <title>stage-2-complete</title>
    <desc>Created with Sketch.</desc>
    <defs>
        <path d="M16,32 C24.836556,32 32,24.836556 32,16 C32,7.163444 24.836556,0 16,0 C7.163444,0 0,7.163444 0,16 C0,24.836556 7.163444,32 16,32 Z" id="path-1"></path>
        <path d="M194,32 C202.836556,32 210,24.836556 210,16 C210,7.163444 202.836556,0 194,0 C185.163444,0 178,7.163444 178,16 C178,24.836556 185.163444,32 194,32 Z" id="path-2"></path>
        <path d="M536,32 C544.836556,32 552,24.836556 552,16 C552,7.163444 544.836556,-2.48689958e-14 536,-2.48689958e-14 C527.163444,-2.48689958e-14 520,7.163444 520,16 C520,24.836556 527.163444,32 536,32 Z" id="path-3"></path>
        <path d="M366.731993,31.1394007 C375.420533,31.1394007 382.463987,24.2412694 382.463987,15.7319933 C382.463987,7.22271715 375.420533,0.324585892 366.731993,0.324585892 C358.043453,0.324585892 351,7.22271715 351,15.7319933 C351,24.2412694 358.043453,31.1394007 366.731993,31.1394007 Z" id="path-4"></path>
    </defs>
    <g id="Page-1" stroke="none" stroke-width="1" fill="none" fill-rule="evenodd">
        <g id="stage-2-complete">
            <g id="Group-6" transform="translate(3.000000, 0.000000)">
                <g id="Group-18" transform="translate(12.000000, 0.000000)">
                    <g id="Group-13">
                        <path d="M453.175913,-71.0469847 L453.175913,102.955887" id="Path-2-Copy" stroke="#006435" stroke-width="6" transform="translate(454.000000, 15.500000) rotate(-90.000000) translate(-454.000000, -15.500000) "></path>
                        <path d="M279.175913,-71.0469847 L279.175913,102.955887" id="Path-2" stroke="#006435" stroke-width="6" transform="translate(280.000000, 15.500000) rotate(-90.000000) translate(-280.000000, -15.500000) "></path>
                        <path d="M109.175913,-67.0000234 L109.175913,98.9558868" id="Path-2" stroke="#006435" stroke-width="6" transform="translate(110.000000, 15.500000) rotate(-90.000000) translate(-110.000000, -15.500000) "></path>
                        <g id="Oval">
                            <use fill="#006435" fill-rule="evenodd" xlink:href="#path-1"></use>
                            <path stroke="#006435" stroke-width="6" d="M16,29 C23.1797017,29 29,23.1797017 29,16 C29,8.82029825 23.1797017,3 16,3 C8.82029825,3 3,8.82029825 3,16 C3,23.1797017 8.82029825,29 16,29 Z"></path>
                        </g>
                        <g id="Oval">
                            <use fill="#006435" fill-rule="evenodd" xlink:href="#path-2"></use>
                            <path stroke="#006435" stroke-width="6" d="M194,29 C201.179702,29 207,23.1797017 207,16 C207,8.82029825 201.179702,3 194,3 C186.820298,3 181,8.82029825 181,16 C181,23.1797017 186.820298,29 194,29 Z"></path>
                        </g>
                        <g id="Oval" transform="translate(536.000000, 16.000000) rotate(-90.000000) translate(-536.000000, -16.000000) ">
                            <use fill="#FFFFFF" fill-rule="evenodd" xlink:href="#path-3"></use>
                            <path stroke="#006435" stroke-width="6" d="M536,29 C543.179702,29 549,23.1797017 549,16 C549,8.82029825 543.179702,3 536,3 C528.820298,3 523,8.82029825 523,16 C523,23.1797017 528.820298,29 536,29 Z"></path>
                        </g>
                        <polygon id="Shape" fill="#FFFFFF" points="12.94 18.36 9.51999999 14.94 7 17.46 12.94 23.5799999 24.9999999 11.52 22.4799999 9"></polygon>
                        <polygon id="Shape" fill="#FFFFFF" points="190.94 18.36 187.52 14.94 185 17.46 190.94 23.5799999 203 11.52 200.48 9"></polygon>
                        <g id="Oval" transform="translate(366.731993, 15.731993) rotate(-90.000000) translate(-366.731993, -15.731993) ">
                            <use fill="#FFFFFF" fill-rule="evenodd" xlink:href="#path-4"></use>
                            <path stroke="#006435" stroke-width="6" d="M366.731993,28.1394007 C373.777516,28.1394007 379.463987,22.570255 379.463987,15.7319933 C379.463987,8.89373158 373.777516,3.32458589 366.731993,3.32458589 C359.68647,3.32458589 354,8.89373158 354,15.7319933 C354,22.570255 359.68647,28.1394007 366.731993,28.1394007 Z"></path>
                        </g>
                    </g>
                </g>
                <g id="Group-10" transform="translate(0.000000, 39.000000)" font-size="16">
                    <text id="You-applied" font-family="GDSTransportWebsite, GDS Transport Website" font-weight="300" line-spacing="22" fill="#0B0C0C">
                        <tspan x="14.2421875" y="15">You </tspan>
                        <tspan x="1.3515625" y="37">applied</tspan>
                    </text>
                    <text id="Your-spouse-responde" font-family="GDSTransportWebsite, GDS Transport Website" font-weight="300" fill="#231F20">
                        <tspan x="160.242188" y="15">Your spouse </tspan>
                        <tspan x="165.035156" y="36">responded</tspan>
                    </text>
                    <text id="The-court-decides" font-family="GDSTransportWebsite-Bold, GDS Transport Website" font-weight="bold" fill="#231F20">
                        <tspan x="345.414062" y="15">The court </tspan>
                        <tspan x="351.636719" y="36">decides</tspan>
                    </text>
                    <text id="Divorce-finalised" font-family="GDSTransportWebsite, GDS Transport Website" font-weight="300" fill="#231F20">
                        <tspan x="520.539062" y="15">Divorce </tspan>
                        <tspan x="517.914062" y="36">finalised</tspan>
                    </text>
                </g>
            </g>
        </g>
    </g>
</svg>