<?xml version="1.0" encoding="UTF-8" standalone="no"?>
<svg width="587px" height="80px" viewBox="0 0 587 80" version="1.1" xmlns="http://www.w3.org/2000/svg" xmlns:xlink="http://www.w3.org/1999/xlink">
    <!-- Generator: Sketch 45.2 (43514) - http://www.bohemiancoding.com/sketch -->
    <title>stage-1-complete</title>
    <desc>Created with Sketch.</desc>
    <defs>
        <path d="M15.7319933,30.8148148 C24.4205333,30.8148148 31.4639866,23.9166836 31.4639866,15.4074074 C31.4639866,6.89813126 24.4205333,0 15.7319933,0 C7.04345332,0 0,6.89813126 0,15.4074074 C0,23.9166836 7.04345332,30.8148148 15.7319933,30.8148148 Z" id="path-1"></path>
        <path d="M190.731993,30.8148148 C199.420533,30.8148148 206.463987,23.9166836 206.463987,15.4074074 C206.463987,6.89813126 199.420533,0 190.731993,0 C182.043453,0 175,6.89813126 175,15.4074074 C175,23.9166836 182.043453,30.8148148 190.731993,30.8148148 Z" id="path-2"></path>
        <path d="M366.731993,31.1394007 C375.420533,31.1394007 382.463987,24.2412694 382.463987,15.7319933 C382.463987,7.22271715 375.420533,0.324585892 366.731993,0.324585892 C358.043453,0.324585892 351,7.22271715 351,15.7319933 C351,24.2412694 358.043453,31.1394007 366.731993,31.1394007 Z" id="path-3"></path>
        <path d="M541.731993,31.1394007 C550.420533,31.1394007 557.463987,24.2412694 557.463987,15.7319933 C557.463987,7.22271715 550.420533,0.324585892 541.731993,0.324585892 C533.043453,0.324585892 526,7.22271715 526,15.7319933 C526,24.2412694 533.043453,31.1394007 541.731993,31.1394007 Z" id="path-4"></path>
    </defs>
    <g id="Page-1" stroke="none" stroke-width="1" fill="none" fill-rule="evenodd">
        <g id="stage-1-complete">
            <g id="Group-2">
                <g id="Group-10" transform="translate(0.000000, 37.555556)" font-size="16">
                    <text id="You-applied" font-family="GDSTransportWebsite, GDS Transport Website" font-weight="300" line-spacing="22" fill="#0B0C0C">
                        <tspan x="14.2421875" y="15">You </tspan>
                        <tspan x="1.3515625" y="37">applied</tspan>
                    </text>
                    <text id="The-respondent-must" font-family="GDSTransportWebsite-Bold, GDS Transport Website" font-weight="bold" fill="#231F20">
                        <tspan x="144.714602" y="15">The respondent </tspan>
                        <tspan x="151.816164" y="36">must respond</tspan>
                    </text>
                    <text id="The-court-decides" font-family="GDSTransportWebsite, GDS Transport Website" font-weight="300" fill="#231F20">
                        <tspan x="343.748652" y="15">The court </tspan>
                        <tspan x="348.58459" y="36">decides	</tspan>
                    </text>
                    <text id="Divorce-finalised" font-family="GDSTransportWebsite, GDS Transport Website" font-weight="300" fill="#231F20">
                        <tspan x="525.142078" y="15">Divorce </tspan>
                        <tspan x="522.517078" y="36">finalised</tspan>
                    </text>
                </g>
                <g id="Group" transform="translate(10.000000, 0.000000)">
                    <path d="M445.585026,-68.4156149 L445.585026,99.1427058" id="Path-2-Copy" stroke="#006435" stroke-width="6" transform="translate(446.395310, 14.925926) rotate(-90.000000) translate(-446.395310, -14.925926) "></path>
                    <path d="M274.499599,-68.4156149 L274.499599,99.1427058" id="Path-2" stroke="#006435" stroke-width="6" transform="translate(275.309883, 14.925926) rotate(-90.000000) translate(-275.309883, -14.925926) "></path>
                    <path d="M107.34717,-64.518541 L107.34717,95.290854" id="Path-2" stroke="#006435" stroke-width="6" transform="translate(108.157454, 14.925926) rotate(-90.000000) translate(-108.157454, -14.925926) "></path>
                    <g id="Oval">
                        <use fill="#006435" fill-rule="evenodd" xlink:href="#path-1"></use>
                        <path stroke="#006435" stroke-width="6" d="M15.7319933,27.8148148 C22.7775164,27.8148148 28.4639866,22.2456691 28.4639866,15.4074074 C28.4639866,8.56914569 22.7775164,3 15.7319933,3 C8.68647017,3 3,8.56914569 3,15.4074074 C3,22.2456691 8.68647017,27.8148148 15.7319933,27.8148148 Z"></path>
                    </g>
                    <g id="Oval">
                        <use fill="#FFFFFF" fill-rule="evenodd" xlink:href="#path-2"></use>
                        <path stroke="#006435" stroke-width="6" d="M190.731993,27.8148148 C197.777516,27.8148148 203.463987,22.2456691 203.463987,15.4074074 C203.463987,8.56914569 197.777516,3 190.731993,3 C183.68647,3 178,8.56914569 178,15.4074074 C178,22.2456691 183.68647,27.8148148 190.731993,27.8148148 Z"></path>
                    </g>
                    <g id="Oval" transform="translate(366.731993, 15.731993) rotate(-90.000000) translate(-366.731993, -15.731993) ">
                        <use fill="#FFFFFF" fill-rule="evenodd" xlink:href="#path-3"></use>
                        <path stroke="#006435" stroke-width="6" d="M366.731993,28.1394007 C373.777516,28.1394007 379.463987,22.570255 379.463987,15.7319933 C379.463987,8.89373158 373.777516,3.32458589 366.731993,3.32458589 C359.68647,3.32458589 354,8.89373158 354,15.7319933 C354,22.570255 359.68647,28.1394007 366.731993,28.1394007 Z"></path>
                    </g>
                    <g id="Oval" transform="translate(541.731993, 15.731993) rotate(-90.000000) translate(-541.731993, -15.731993) ">
                        <use fill="#FFFFFF" fill-rule="evenodd" xlink:href="#path-4"></use>
                        <path stroke="#006435" stroke-width="6" d="M541.731993,28.1394007 C548.777516,28.1394007 554.463987,22.570255 554.463987,15.7319933 C554.463987,8.89373158 548.777516,3.32458589 541.731993,3.32458589 C534.68647,3.32458589 529,8.89373158 529,15.7319933 C529,22.570255 534.68647,28.1394007 541.731993,28.1394007 Z"></path>
                    </g>
                    <polygon id="Shape" fill="#FFFFFF" points="12.7232496 17.68 9.360536 14.3866666 6.88274707 16.8133333 12.7232496 22.7066666 24.5812394 11.0933333 22.1034505 8.66666667"></polygon>
                </g>
            </g>
        </g>
    </g>
</svg>