<?xml version="1.0" encoding="UTF-8" standalone="no"?>
<svg width="587px" height="80px" viewBox="0 0 587 80" version="1.1" xmlns="http://www.w3.org/2000/svg" xmlns:xlink="http://www.w3.org/1999/xlink">
    <!-- Generator: Sketch 45.2 (43514) - http://www.bohemiancoding.com/sketch -->
    <title>stage-4-started</title>
    <desc>Created with Sketch.</desc>
    <defs>
        <path d="M16,32 C24.836556,32 32,24.836556 32,16 C32,7.163444 24.836556,0 16,0 C7.163444,0 0,7.163444 0,16 C0,24.836556 7.163444,32 16,32 Z" id="path-1"></path>
        <path d="M194,32 C202.836556,32 210,24.836556 210,16 C210,7.163444 202.836556,0 194,0 C185.163444,0 178,7.163444 178,16 C178,24.836556 185.163444,32 194,32 Z" id="path-2"></path>
        <path d="M372.666667,32 C381.503223,32 388.666667,24.836556 388.666667,16 C388.666667,7.163444 381.503223,-2.84217094e-14 372.666667,-2.84217094e-14 C363.830111,-2.84217094e-14 356.666667,7.163444 356.666667,16 C356.666667,24.836556 363.830111,32 372.666667,32 Z" id="path-3"></path>
        <path d="M537,32 C545.836556,32 553,24.836556 553,16 C553,7.163444 545.836556,-1.52766688e-13 537,-1.52766688e-13 C528.163444,-1.52766688e-13 521,7.163444 521,16 C521,24.836556 528.163444,32 537,32 Z" id="path-4"></path>
    </defs>
    <g id="Page-1" stroke="none" stroke-width="1" fill="none" fill-rule="evenodd">
        <g id="stage-4-started">
            <g id="Group-6" transform="translate(4.000000, 0.000000)">
                <g id="Group-18" transform="translate(11.000000, 0.000000)">
                    <g id="Group-13">
                        <path d="M453.175913,-71.0469847 L453.175913,102.955887" id="Path-2-Copy" stroke="#006435" stroke-width="6" transform="translate(454.000000, 15.500000) rotate(-90.000000) translate(-454.000000, -15.500000) "></path>
                        <path d="M279.175913,-71.0469847 L279.175913,102.955887" id="Path-2" stroke="#006435" stroke-width="6" transform="translate(280.000000, 15.500000) rotate(-90.000000) translate(-280.000000, -15.500000) "></path>
                        <path d="M109.175913,-67.0000234 L109.175913,98.9558868" id="Path-2" stroke="#006435" stroke-width="6" transform="translate(110.000000, 15.500000) rotate(-90.000000) translate(-110.000000, -15.500000) "></path>
                        <g id="Oval">
                            <use fill="#006435" fill-rule="evenodd" xlink:href="#path-1"></use>
                            <path stroke="#006435" stroke-width="6" d="M16,29 C23.1797017,29 29,23.1797017 29,16 C29,8.82029825 23.1797017,3 16,3 C8.82029825,3 3,8.82029825 3,16 C3,23.1797017 8.82029825,29 16,29 Z"></path>
                        </g>
                        <g id="Oval">
                            <use fill="#006435" fill-rule="evenodd" xlink:href="#path-2"></use>
                            <path stroke="#006435" stroke-width="6" d="M194,29 C201.179702,29 207,23.1797017 207,16 C207,8.82029825 201.179702,3 194,3 C186.820298,3 181,8.82029825 181,16 C181,23.1797017 186.820298,29 194,29 Z"></path>
                        </g>
                        <g id="Oval" transform="translate(372.666667, 16.000000) rotate(-90.000000) translate(-372.666667, -16.000000) ">
                            <use fill="#006435" fill-rule="evenodd" xlink:href="#path-3"></use>
                            <path stroke="#006435" stroke-width="6" d="M372.666667,29 C379.846368,29 385.666667,23.1797017 385.666667,16 C385.666667,8.82029825 379.846368,3 372.666667,3 C365.486965,3 359.666667,8.82029825 359.666667,16 C359.666667,23.1797017 365.486965,29 372.666667,29 Z"></path>
                        </g>
                        <polygon id="Shape" fill="#FFFFFF" points="368.94 18.36 365.52 14.94 363 17.46 368.94 23.5799999 381 11.52 378.48 9"></polygon>
                        <g id="Oval" transform="translate(537.000000, 16.000000) rotate(-90.000000) translate(-537.000000, -16.000000) ">
                            <use fill="#FFFFFF" fill-rule="evenodd" xlink:href="#path-4"></use>
                            <path stroke="#006435" stroke-width="6" d="M537,29 C544.179702,29 550,23.1797017 550,16 C550,8.82029825 544.179702,3 537,3 C529.820298,3 524,8.82029825 524,16 C524,23.1797017 529.820298,29 537,29 Z"></path>
                        </g>
                        <polygon id="Shape" fill="#FFFFFF" points="12.94 18.36 9.51999999 14.94 7 17.46 12.94 23.5799999 24.9999999 11.52 22.4799999 9"></polygon>
                        <polygon id="Shape" fill="#FFFFFF" points="190.94 18.36 187.52 14.94 185 17.46 190.94 23.5799999 203 11.52 200.48 9"></polygon>
                    </g>
                </g>
                <g id="Group-10" transform="translate(0.000000, 35.000000)" font-size="16">
                    <text id="You-applied" font-family="GDSTransportWebsite, GDS Transport Website" font-weight="300" line-spacing="22" fill="#0B0C0C">
                        <tspan x="13.2421875" y="15">You </tspan>
                        <tspan x="0.3515625" y="37">applied</tspan>
                    </text>
                    <text id="Your-spouse-responde" font-family="GDSTransportWebsite, GDS Transport Website" font-weight="300" fill="#231F20">
                        <tspan x="159.242188" y="18">Your spouse </tspan>
                        <tspan x="164.035156" y="39">responded</tspan>
                    </text>
                    <text id="The-court-decided" font-family="GDSTransportWebsite, GDS Transport Website" font-weight="300" fill="#231F20">
                        <tspan x="346.164062" y="19">The court </tspan>
                        <tspan x="351.207031" y="40">decided</tspan>
                    </text>
                    <text id="Divorce-finalised" font-family="GDSTransportWebsite-Bold, GDS Transport Website" font-weight="bold" fill="#231F20">
                        <tspan x="518.921875" y="19">Divorce </tspan>
                        <tspan x="516.203125" y="40">finalised</tspan>
                    </text>
                </g>
            </g>
        </g>
    </g>
</svg>